<?xml version="1.0" encoding="UTF-8" standalone="no"?>
<svg xmlns:rdf="http://www.w3.org/1999/02/22-rdf-syntax-ns#" xmlns="http://www.w3.org/2000/svg" height="87.549mm" width="119.59mm" version="1.1" xmlns:cc="http://creativecommons.org/ns#" xmlns:dc="http://purl.org/dc/elements/1.1/" viewBox="0 0 423.74914 310.21303">
 <title>Fish</title>
 <g transform="translate(-284.48 -671.13)">
  <g transform="matrix(-3.0728 0 0 3.0728 692.65 722.26)">
   <g stroke-width=".63709" transform="translate(0,-244)">
    <circle cx="628.28" transform="rotate(90)" cy="268.55" r="0" fill="#191919"/>
    <circle cx="628.28" transform="rotate(90)" cy="268.41" r="0" fill="#fff"/>
    <circle cx="649.05" transform="rotate(90)" cy="268.12" r="0" fill="#191919"/>
    <circle cx="649.05" transform="rotate(90)" cy="268.12" r="0" fill="#fff"/>
    <circle cx="638.51" transform="rotate(90)" cy="285.31" r="0" fill="#191919"/>
    <circle cx="638.51" transform="rotate(90)" cy="285.18" r="0" fill="#fff"/>
    <circle cx="714.67" transform="rotate(90)" cy="576.81" r="0" fill="#191919"/>
    <circle cx="714.67" transform="rotate(90)" cy="576.69" r="0" fill="#fff"/>
    <circle cx="735.49" transform="rotate(90)" cy="576.38" r="0" fill="#191919"/>
    <circle cx="735.49" transform="rotate(90)" cy="576.38" r="0" fill="#fff"/>
    <circle cx="724.92" transform="rotate(90)" cy="593.57" r="0" fill="#191919"/>
    <circle cx="724.92" transform="rotate(90)" cy="593.45" r="0" fill="#fff"/>
    <circle cx="1234.8" transform="rotate(90)" cy="168.52" r="0" fill="#191919"/>
    <circle cx="1234.8" transform="rotate(90)" cy="168.38" r="0" fill="#fff"/>
    <circle cx="1255.6" transform="rotate(90)" cy="168.09" r="0" fill="#191919"/>
    <circle cx="1255.6" transform="rotate(90)" cy="168.09" r="0" fill="#fff"/>
    <circle cx="1245.1" transform="rotate(90)" cy="185.29" r="0" fill="#191919"/>
    <circle cx="1245.1" transform="rotate(90)" cy="185.15" r="0" fill="#fff"/>
    <circle cx="1321.3" transform="rotate(90)" cy="476.8" r="0" fill="#191919"/>
    <circle cx="1321.3" transform="rotate(90)" cy="476.67" r="0" fill="#fff"/>
    <circle cx="1342.1" transform="rotate(90)" cy="476.37" r="0" fill="#191919"/>
    <circle cx="1342.1" transform="rotate(90)" cy="476.37" r="0" fill="#fff"/>
    <circle cx="1331.5" transform="rotate(90)" cy="493.56" r="0" fill="#191919"/>
    <circle cx="1331.5" transform="rotate(90)" cy="493.43" r="0" fill="#fff"/>
   </g>
   <g stroke-linejoin="round">
    <path d="m65.413 10.863c-0.88092 0.02233 0.31442 1.0089 1.0901 1.2397 1.4945 0.86315 3.5629 1.4316 4.863 2.4317-5.0572 0.30063-10.26 1.2694-15.25 2.8807-9.167 2.96-17.871 7.41-25.436 9.081-2.1409 0.0029-3.8679 0.4266-5.8031 0.19042-1.5653-0.19103-3.2454 0.06553-4.8206 0.09899-1.6569 0.02867-2.851 1.6281-3.2012 3.1189-0.21589 1.4775 0.10495 4.0412 0.99865 4.9623 1.9219 1.6348 5.3359 1.1675 7.6194 2.1988 2.6043 1.1761 5.2733 2.1394 8.0004 2.9176 4.5705 1.1711 9.2165 2.0638 13.692 3.5854 4.172 1.234 8.273 2.758 12.537 3.652 2.8462 0.43398 5.7505 0.30603 8.6183 0.21028 4.74-0.41 9.41-1.49 13.96-2.86 0.76765-0.41906 1.593-0.74838 2.4526-0.89478 0.44749-0.03276 0.29104-0.86344 0.56592-0.71411 1.999 0.9644 4.257 0.26763 6.3338-0.0036 2.3734-0.48521 4.8222-0.88097 7.0295-1.9176 0.89596-0.9892 2.613-2.372 4.1979-2.8305 0.9929-0.48259 2.2592 0.37097 3.0834-0.48055 1.05-0.206 2.13-0.464 3.11-0.931 0.48-0.153 0.93-0.559 1.37-0.679 1.9342 0.21959 3.8103 0.26159 5.5837 0.05151 0.71661 0.95866 2.0668 0.65741 2.9224 0.07227 0.84455-0.45837 2.0426-1.3919 1.4851-2.4712-0.68514-0.82723-1.9333-0.66463-2.8857-0.93311-1.2834-0.31506-2.5929-0.1987-3.8731 0.05706-1.1051 0.15657-2.233 0.14751-3.3537 0.30769 3.6008-2.9332 6.2195-6.9466 10.076-9.5828 0.86065-0.6583 2.4511-0.95988 3.1111 0.09839-0.009 0.57221-0.86252 2.5594-0.025 2.5966 0.90004-0.06785 1.7588-2.285 2.0113-2.9874 0.35557-1.6084-1.1757-2.7765-2.5129-3.2649-1.1431-0.35601-2.4507-0.38194-3.5874 0.01025-0.76141 0.34172-1.5737 0.72712-2.2214 1.2029-0.12749-1.0385-1.3954-1.2495-2.1216-1.7588-3.5374-1.755-7.2939-3.0221-11.005-4.3526-3.5561-1.1772-7.3604-0.98973-11.041-1.4018-3.9571-0.23924-8.0049-0.94675-11.926-0.03053-2.1608 0.2424-4.342 0.18447-6.512 0.27417-2.3724-1.456-6.1044-2.5772-8.8428-3.1309-0.09601-0.01217-0.19286-0.02263-0.28979-0.01758zm34.687 6.73c2.4001-0.12076 4.413 2.1523 4.5862 4.4456 0.19975 1.8592-1.0122 3.7959-2.874 4.217-1.7236 0.5153-3.7953 0.17029-4.9185-1.3428-1.74-1.97-1.23-5.37 1.02-6.74 0.65584-0.43009 1.3998-0.65652 2.1897-0.58423z" stroke-width=".08875" fill="#ac93a7"/>
    <path d="m2.8181 14.501c1.3155 1.8095 1.8501 4.4266 3.6434 5.7845 0.31908 0.05832 0.0000423 0.3858 0.094406 0.60453 0.10843 1.2556 0.67272 2.1601 1.6189 2.9919 0.28251 0.09896 0.32183 0.16203 0.1042 0.38352-0.58442 1.1414-0.76031 2.5492-0.17984 3.7298 0.1251 0.30619 0.28438 0.60839 0.52893 0.83669-0.55354 0.26686 0.012326 0.73999-0.080337 1.2584-0.061126 1.0344 0.035691 2.1887 0.7398 3.0072-0.56761 0.29926-0.6349 1.0448-0.77648 1.6122-0.22471 1.194 0.027105 2.4374 0.46424 3.5539 0.12932 0.26896 0.26578 0.5564 0.52137 0.72867-0.62209 0.40928-0.99933 1.1267-1.2491 1.8187-0.23261 0.70888-0.30773 1.5453 0.089386 2.2106-0.54623 0.11894-0.71998 0.74981-0.99281 1.1753-0.3297 0.697-0.5804 1.572-0.2172 2.301 0.43508 0.59902 1.2331 0.26753 1.817 0.14426 2.3498-0.5666 4.0448-2.5451 6.0508-3.7989 1.7417-1.1008 3.5074-2.1028 5.2335-3.2294 1.281-0.82221 2.8344-1.3811 4.3248-1.7087 0.50693-0.0288 1.3267 0.29747 1.0528-0.21482-0.26911-0.53087 0.34619-0.53884-0.12018-0.80775-2.4003-0.27982-5.3623-0.95026-6.2508-1.3818-1.478-0.718-1.345-0.622-1.738-2.218-0.76731-1.5567 0.26838-5.9645 1.8555-5.7606 0.88591-0.32714 2.9419-0.672 7.3198-1.0718-3.599-2.402-7.212-4.19-10.851-6.656-2.887-1.824-5.352-4.082-8.3747-5.703-2.4597-1.74-3.9958-0.715-4.6282 0.411zm47.216-2.751c1.4866 2.5066 0.79532 4.0095-1.9989 4.2688 1.481 1.323 1.461 2.015 0.373 4.269 7.471-2.865 15.042-5.128 22.903-5.651-0.214-0.659-0.897-0.564-1.4-1.004-2.928-2.021-6.328-3.43-9.897-3.7034-2.221-0.2352-4.427-0.6826-6.65-0.9197 0.969 1.7311-0.952 3.4941-3.33 2.7401zm53.911 27.103c-0.60302 0.10762-0.98605 0.66406-1.4414 1.0293-0.7459 0.72077-1.0933 1.7356-1.6309 2.6035-0.39059-0.37084-0.94628-0.08928-1.2168 0.2832-2.0452 2.154-4.0619 4.3223-6.2207 6.3555 1.527-2.2 2.807-4.566 4.454-6.68 0.38253-0.36239 0.37999-1.0763-0.15625-1.2891-0.11564-0.04229-0.25596-0.06495-0.38086-0.04297-0.942 0.258-1.898 0.523-2.828 0.824-0.385 0.205-0.634 0.591-0.961 0.872-0.15363-0.47406-0.73369-0.55741-1.1426-0.37695-1.6906 0.39814-3.4865 0.55031-5.1992 0.96094-0.26817 0.06821-0.53346 0.14236-0.79883 0.2207-0.25973-0.56983-0.97551-0.37401-1.4609-0.29883-0.86905 0.16923-1.7909 0.40609-2.4727 0.99805-0.294 0.406-0.688 0.867-0.647 1.386 0.115 0.68 0.951 0.588 1.399 0.942 0.57754 0.32209 1.0076 0.96167 0.85938 1.6406-0.037 0.6965-0.63986 1.1627-0.92773 1.7461-0.112 0.573 0.458 0.812 0.822 1.111 0.78869 0.59542 1.0658 1.7625 0.51562 2.6094-0.30292 0.40387-0.30407 1.0854 0.22266 1.2988 0.57601 0.1739 1.1434-0.20488 1.6953-0.33594 1.0489-0.32862 2.0365-0.81602 2.9512-1.416-0.01465 0.3284 0.18424 0.67644 0.43555 0.89258 0.60219 0.50894 0.84104 1.3737 0.52539 2.1055-0.21401 0.41744-0.23169 1.0411 0.27344 1.252 0.61327 0.20316 1.143-0.32574 1.6836-0.5332 2.2913-1.1505 4.1574-3.0531 5.3633-5.3066 2.1506-3.7876 4.6577-7.3675 6.6875-11.225 0.22561-0.42587 0.57083-1.0481 0.0937-1.4375-0.10855-0.16454-0.31737-0.14784-0.48633-0.18945zm-61.438 3.0898-0.22266 0.0078c-0.74212 0.45201-1.3538 1.2466-1.4707 2.1211-0.0022 0.66581 0.72957 0.78835 1.2285 0.79688 1.0214 0.07311 2.0349 0.44945 2.707 1.25 0.55995 0.59771 1.4476 0.44576 2.1309 0.81641 0.82645 0.34339 1.3467 1.1459 1.6953 1.9277 0.44862 0.60886 1.3659 0.18098 1.9219 0.66992 0.94028 0.60805 1.0058 1.8056 1.2109 2.7949 0.22187 0.59611 0.9289 0.78447 1.2168 1.3535 0.57122 0.73312 0.78819 1.7366 0.49805 2.623-0.0022 0.72706 0.90876 0.9018 1.3965 0.50781 2.9753-1.5534 5.473-3.8871 7.6211-6.4375 0.49371-0.7069 1.0936-1.3663 1.4434-2.1582 0.12951-0.65642-0.54712-0.95622-1.0918-0.91016-1.4607-0.04642-2.9018-0.33197-4.3398-0.53125-0.59947 0.36326-0.59415-0.17702-1.1582-0.33594-1.6679-0.45569-3.3145-1.0102-4.9688-1.4922-0.46534 0.17584-0.57139-0.22938-0.99609-0.35938-1.346-0.4474-2.6857-0.92956-4.041-1.3262-0.46104 0.19883-0.60731-0.35651-1.084-0.35938-1.2218-0.35053-2.4502-0.75003-3.6973-0.95898z" stroke-width=".062756" fill="#6c5367"/>
    <path d="m121.84 22.623c-1.0172 0.02021-1.8562 0.68864-2.5797 1.3354-0.71745 0.65694-1.4432 1.3042-2.1769 1.9437-2.23 2.1-4.27 4.38-6.43 6.56-0.31 0.32-0.23 0.92 0.19 1.11 0.33245 0.16128 0.71653 0.04341 1.0722 0.04491 1.1462-0.09837 2.2821-0.30568 3.4024-0.56224 0.6277-0.21937 1.1851-0.5989 1.754-0.93638 3.89-2.18 7.02-7.14 6.85-7.69 0.10494-0.59052-0.22983-1.1935-0.75543-1.4646-0.4-0.233-0.86-0.365-1.32-0.345z" stroke-width=".022187" fill="#6c5367"/>
   </g>
   <g stroke-width="1px" fill-rule="evenodd">
    <path d="m61.197 10.65c4.018 0.468 6.107 1.703 9.174 3.553-11.857 0.656-20.107 4.873-28.938 8.44-3.917 1.583-7.835 2.93-11.06 3.252-4.2746 0.50724-6.4906 0.07562-10.793 1.5293 3.9049-0.24884 7.3374-0.40372 11.006-0.62109 3.9201-0.59895 7.7392-1.9137 11.221-3.3203 10.94-4.421 18.967-7.759 30.123-8.639 0.32604 0.32126 1.0822 0.31365 1.4082 0.12305-0.6037 0.05384-1.1875-0.37202-1.5918-0.66016-2.0451-1.5902-4.2334-2.1931-6.2852-3.1328 3.248 0.47734 6.6495 1.938 8.9238 3.4824l6.6016-0.19922 0.08203-0.02344c2.4322-0.7108 4.6655-0.626 7.1914-0.40234 4.022 0.357 8.049 0.635 12.07 0.952 2.3124 0.18215 4.5396 1.1293 6.8105 1.9746 3.6368 1.3536 7.3449 2.6002 10.1 4.6641l0.33203 0.0625 0.24023-0.13867c1.2116-0.69916 2.1325-1.0647 2.9238-1.1719 0.7913-0.10719 1.4716 0.02372 2.2969 0.39648l0.004 0.002h0.002c0.75326 0.33132 1.2337 0.70175 1.5117 1.0664 0.27798 0.36466 0.37502 0.72147 0.34766 1.1445-0.0547 0.84618-0.72572 1.9634-1.8027 3.1309-2.1533 2.3341-5.3769 5.1757-8.4824 6.5547l0.63867 0.34961c0.26499-0.17532 0.46194 0.12882 0.74609-0.06055 2.5482-1.6981 5.7665-3.9313 7.8398-6.1602 1.1522-1.2387 1.9863-2.4794 2.0684-3.748 0.041-0.63432-0.13597-1.2722-0.55078-1.8164-0.41405-0.54316-1.0442-0.99383-1.9004-1.3711h-0.002c-0.94045-0.42448-1.8565-0.61003-2.8418-0.47656-0.90521 0.12262-1.8882 0.56412-3.0195 1.1914-3.1284-1.6442-6.4815-3.2117-10.09-4.5547-2.24-0.83-4.5501-1.8313-7.0801-2.0312l-12.037-0.949c-2.689-0.212-5.349-0.31-7.435 0.416l-6.1504 0.21094c-5.5-2.499-9.637-3.515-14.524-3.8633z" style="color:#000000"/>
    <path d="m117.56 20.653c-4.2186 3.1938-5.6938 6.8719-9.4161 9.0217 4.3816-1.8319 7.1563-6.4546 10.096-8.4067z" style="color:#000000"/>
    <path d="m117.24 25.333c-2.6362 2.4596-4.7483 5.2961-7.3174 7.4066-0.92 0.742-1.85 1.314-3.16 1.271 0.89189 0.6878 2.9282 0.16628 3.7676-0.45703 2.4122-2.3463 4.9314-5.2727 7.377-7.4729 1.73-1.32 3.21-3.64 5.03-2.45 1.6954 1.1157-3.9933 5.9029-6.4705 7.6451 2.2632-0.90167 6.3174-4.8524 6.908-5.6968 0.96261-1.3762 1.2063-2.0812 0.061-2.8149-2.1948-1.4062-4.5876 1.1509-6.1898 2.5653z" style="color:#000000"/>
   </g>
   <path stroke-linejoin="round" d="m65.643 47.313c-0.437 0.027-0.889-0.041-1.313 0.07-0.37184 0.17581-0.51608 0.59857-0.76504 0.90209-0.92467 1.337-1.9216 2.6302-3.0741 3.7802-0.27 0.24-0.46 0.61-0.3 0.96 0.16716 0.42723 0.61049 0.35316 0.9594 0.07585 1.6284-1.0621 3.1429-2.2765 4.4483-3.7044 0.29437-0.36348 0.63495-0.69781 0.87488-1.1006 0.17531-0.39389-0.0857-0.88497-0.5077-0.96443-0.1067-0.02313-0.21722-0.01352-0.32567-0.01488z" stroke-width=".022187" fill="#ac93a7"/>
   <path stroke-linejoin="round" d="m99.493 39.923c-1.8469 2.0771-3.4217 4.2975-4.8633 6.666-0.21 0.358-0.451 0.702-0.637 1.072-0.16832 0.36482 0.0585 0.83903 0.44727 0.93945 0.31431 0.10893 0.63888-0.06418 0.84766-0.29688 1.4846-1.4675 2.8084-3.0848 4.1973-4.6406 1.0922-1.2326 2.2264-2.4362 3.4863-3.5 0.42076-0.35649 0.88573-0.69746 1.3574-1.0078-0.43472 0.87285-0.91493 1.7219-1.4121 2.5605-1.3448 2.2826-2.7145 4.5506-4.1191 6.7969-0.19565 0.33958-0.04782 0.8236 0.31641 0.97852 0.31075 0.16175 0.4649-0.09203 0.67188-0.35937 1.694-1.857 3.194-3.936 4.414-6.134 0.69171-1.2774 1.2249-2.6277 1.536-4.0553 0.0769-0.28625 0.35729-0.46886 0.11728-0.66759-0.19127-0.16877-0.46565-0.21211-0.70508-0.12891-0.12669 0.06041-0.22884 0.14908-0.32227 0.24805-0.01-0.083-0.02-0.165-0.06-0.242-1.4987-0.70747-4.1369 0.96496-5.2773 1.7715z" stroke-width=".015689" fill="#ac93a7"/>
   <g stroke-width="1px" fill-rule="evenodd">
    <path d="m85.893 20.693c-3.1887 0.81639-5.218 4.3932-5.5742 5.75-2.8629 3.4063-2.7292 9.8665 1.2324 12.139 0.47675 1.5675 1.4399 3.455 3.2266 4.4355-0.981 0.156-2.125 0.517-2.742 1.032-9.4107 2.6013-13.646 2.5261-19.136 2.3974-4.5091-0.10569-8.7269-1.4861-16.663-3.8154-6.8003-2.0597-13.281-4.1928-19.601-5.6185-3.7922-0.81318-4.7017-0.59292-8.0485-1.8661 3.2672 2.2178 4.017 1.8208 7.7957 2.6431 6.8967 1.9073 13.593 3.8475 19.638 5.7399 6.8343 2.1346 11.696 3.7923 16.825 3.999 7.0381 0.2836 13.332-0.8974 20.03-2.7392 1.0015-0.61305 1.9663-0.90701 3.2188-0.88477 3.3691 0.05984 8.1356-1.0664 12.254-2.4316 0.238-0.26 1.298-1.404 1.596-1.713-3.2473 1.8656-8.7503 2.7298-11.832 3.0645-3.2246 0.35018-5.7777-2.5465-5.7812-4.918-4.007-1.953-3.681-8.075-1.217-11.082 0.467-2.425 2.715-5.208 4.78-6.129zm29.767 11.598c-1.88 0.42-3.77 0.77-5.23 0.67l-0.52 0.76c1.6715 0.0015 3.4818 0.0235 4.752-0.35742 1.92-0.27 3.21 0.24 4.88 0.5 0.27262 0.12456 0.39749 0.28185 0.41406 0.45508 0.0702 0.73336-1.7983 1.7624-2.5918 1.9043-0.94533-0.20964-1.0016-0.44407-0.96875-1.0098-0.23359 0.04663-0.39419 0.16543-0.48047 0.35938-2.0569 0.32493-5.2387 0.48335-5.584-0.29492-0.89435 0.88308-3.5293 1.8662-4.6328 1.75-0.008 0.18199-0.37487 0.45342-0.9668 0.77344h0.06s-0.9121 0.97631-1.7676 1.8867c1.3287-0.58961 2.4219-1.159 3.0488-1.6289 1.71-0.187 3.31-1.116 4.48-1.762 1.66 0.159 3.39 0.297 5.32-0.001 1.5226 1.5063 3.3138 0.33932 4.6934-1.1309 0.32953-0.33736 0.42836-0.85565 0.2832-1.2344-0.15-0.38-0.42-0.648-0.72-0.905l-0.11328-0.09961-0.15039-0.02148c-1.3303-0.17921-2.576-0.63331-4.2207-0.61523z" style="color:#000000"/>
    <path d="m87.093 26.503c-0.06936 1.6826 0.43449 3.3908 0.91016 5.7012 1.0938 5.5736 5.426 7.5796 9.6543 6.498 2.623-0.799 4.453-1.725 5.673-3.114-2.1969 1.7119-4.4076 2.2152-5.8712 2.5092-4.2002 0.84735-8.1937-1.7474-8.7359-6.0352-0.112-1.909-0.981-3.957-0.962-5.626 0.04387-1.4596 0.35685-3.096 2.5971-4.4305-2.173 0.40364-3.1985 3.0724-3.2656 4.498z" style="color:#000000"/>
    <path d="m99.193 39.943c-3.183 3.272-4.698 6.646-6.703 9.408-1.758 2.422-3.887 4.245-7.66 5.127 1.452-1.968 0.238-3.576-1.028-4.293 1.783-1.857 1.124-4.016-1.383-4.585 0.30888-0.31638 0.41827-0.71825 0.59375-1.0918l-0.877-0.478c-0.145 0.851-0.742 1.515-1.217 2.231 3.1904 0.29543 3.6449 2.2729 1.2461 4.1484 1.6798 0.86596 2.9291 1.5426 1.9844 3.334-0.349 0.379-0.86 0.742-1.257 1.321l-0.63867 0.93359 1.1191-0.1543c4.656-0.6412 7.3039-2.6121 9.3164-5.1191 4.9693-4.3398 8.7803-9.492 12.108-11.9 0.57853-0.46142 0.4968-0.54653 0.51842-1.0865-1.76-0.605-5.04 1.087-6.127 2.208zm4.967-1.512c-3.6184 2.2493-6.7775 6.9719-9.6328 9.6356 1.514-2.48 3.044-5.1 5.314-7.72 0.919-1.063 3.589-2.631 4.319-1.921z" style="color:#000000"/>
   </g>
   <ellipse stroke-linejoin="round" rx="4.5578" ry="4.7788" stroke="#000" cy="22.003" cx="100.1" stroke-width="0.71" fill="#e3dbe2"/>
   <ellipse stroke-linejoin="round" rx="2.5571" ry="2.6811" stroke="#000" cy="22.083" cx="99.703" stroke-width=".28636"/>
   <g stroke-width="1px">
    <g fill-rule="evenodd">
     <path d="m105.8 24.943c-2.2153 3.9095-5.6582 4.071-9.1367 2.752 3.857 3.5 7.687 0.88 9.137-2.75z" style="color:#000000"/>
     <path d="m103.59 18.403c0.85451 1.085 1.5703 3.1689 0.99805 4.957-0.31507 0.98447-0.80779 2.9827-3.877 3.709 5.0356-0.09583 5.9736-6.0801 2.8789-8.666z" style="color:#000000"/>
     <path d="m97.453 50.673c-1.3256 2.6829-3.1179 4.8379-6.689 6.342 1.1008-2.1852-0.36684-3.5659-1.7346-4.0591l-1.288 0.66c1.8015 0.57118 2.8595 0.86243 2.2295 2.7871-0.2792 0.43218-0.72229 0.87592-1.016 1.5127l-0.4726 1.0277 1.0773-0.34028c4.4819-1.415 6.8232-4.2405 8.3855-7.0503 4.292-4.3055 6.5531-7.2531 8.0485-12.635 0.4927-0.55213 0.71226-1.1934 0.64277-1.7293-0.96823 0.0046-1.8083 0.8177-2.439 2.0609-0.23516 0.46359-0.42405 0.94751-0.7149 1.4732-1.7014 3.075-4.297 7.059-6.0288 9.9499zm7.967-11.931c-0.42177 2.6413-3.345 7.3722-6.1724 10.321 0.932-1.422 3.452-5.593 5.012-8.292 0.69061-1.1974 0.62836-1.4254 1.16-2.0295z" style="color:#000000"/>
    </g>
    <path d="m54.162 10.449c0.324-0.006 0.716 0.019 1.082 0.031-0.383-0.025-0.749-0.037-1.082-0.031zm1.082 0.031c2.145 0.141 5.073 0.811 8.838 2.528 1.267 0.578 2.443 1.202 3.563 1.828l1.222-0.182c-1.417-0.729-2.942-1.462-4.592-2.105-3.984-1.555-6.864-1.993-9.031-2.069z"/>
    <path d="m51.754 12.889c0.946 0.099 3.851 0.52 6.709 1.353 1.606 0.468 2.895 0.977 3.986 1.494l1.033-0.234 0.547-0.09c-1.401-0.637-3.133-1.223-5.31-1.658-2.94-0.588-6.099-0.774-6.965-0.865z"/>
    <path d="m59.797 16.338c-1.14 0.127-2.35 0.23-4.307 0.254-2.282 0.028-4.609 0.023-5.797 0.023 1.597 0 3.105 0.217 5.776 0.477 0.614 0.06 1.184 0.106 1.722 0.14l2.368-0.839z"/>
    <path d="m1.848 14.277c2.3227 2.272 1.8985 4.76 4.0011 6.2868-0.019461 0.80581 0.29447 2.3249 1.8997 3.486-0.7149 1.532-0.7776 3.133 0.1028 4.625-0.42638 1.825-0.3669 3.465 0.5128 4.6989-1.1904 1.7743-0.52482 4.6483 0.39885 5.933-1.0567 1.212-1.3612 2.6845-1.0291 3.7889-0.9331 1.313-1.1632 2.519-1.0531 4.344 2.8679 0.392 7.0699-3.272 9.9579-5.029 2.0068-1.221 3.9714-2.6334 5.865-3.4413 1.8937-0.80789 4.2041-1.0992 5.3884-0.87697l-0.891-0.702c-1.5489-0.29072-2.9703-0.11761-4.9448 0.72476-1.9745 0.84235-3.6406 2.3778-5.7118 3.5255-2.8846 1.5983-5.6626 4.6673-8.7748 4.9253-0.32457-0.90627 0.13661-1.892 1.0657-3.0856l0.084968-0.11791 0.00779-0.14816c-0.621-1.181-0.0854-2.547 0.9137-3.507l0.2428-0.242-0.1386-0.313c-0.9199-0.945-1.789-3.842-0.3944-5.651l0.0742-0.259-0.177-0.202c-0.7951-0.919-0.8611-2.368-0.4032-4.243l0.052534-0.21466-0.12282-0.18407c-0.917-1.389-0.8386-2.69-0.046-4.187l0.1639-0.357c-1.6269-0.568-2.5162-3.08-2.0925-3.875l-0.10297-0.07238c-2.3585-1.631-1.87-3.365-3.4562-5.471 0.8312-0.669 1.7482-1.184 2.6542-0.824 2.5822 1.028 5.8013 4.5919 9.0882 6.3001 2.6305 1.6512 7.7501 4.6712 11.156 6.7088l0.03149 0.01476c0.96699 0.45307 2.1449 0.13063 4.1871 0.12749l-0.0025-0.74802c-1.9308-0.0045-2.9175 0.09731-3.7453-0.28581l-11.156-6.707c-2.167-0.991-6.1665-4.853-9.0657-6.134-1.7904-0.791-3.3552 0.296-4.5373 1.387z" style="color:#000000" fill-rule="evenodd"/>
    <path d="m8.4929 24.561c0.3307-0.099 0.8782-0.193 1.9691 0.026 0.81958 0.16449 1.7525 0.46247 2.879 0.85531 2.534 0.88368 5.4294 1.7689 6.7963 1.9913-1.8592-0.30258-3.647-1.1018-6.6098-2.4553-1.0782-0.48936-2.0147-0.89863-2.8664-1.1633-1.1384-0.356-1.8994-0.374-2.4577-0.207z"/>
    <path d="m8.0805 29.163c0.3086 0.224 0.8666 0.457 1.7997 0.657 0.6938 0.148 1.5348 0.265 2.4198 0.324 0.88984 0.05948 1.7293 0.05506 2.438-0.0064 0.96538-0.08376 1.4849-0.25267 1.7937-0.38213-0.30146 0.12636-0.86006 0.2225-1.7985 0.18478-0.695-0.028-1.518-0.127-2.369-0.292-0.854-0.165-1.636-0.377-2.267-0.601-0.8646-0.306-1.2443-0.559-1.4288-0.693z"/>
    <path d="m6.652 20.512c-0.011755 0.01405 0.040024-0.07122 0.30255-0.16224 0.2024-0.07 0.5096-0.138 0.9414-0.17 0.75527-0.05637 1.8397 0.0015 3.1767 0.30136 3.533 0.79223 6.7315 2.7613 8.9791 4.8522-2.2848-2.1256-5.2393-4.2227-8.8504-5.3354-1.3439-0.414-2.4807-0.59-3.3188-0.621-0.4789-0.017-0.8649 0.012-1.163 0.073-0.3872 0.078-0.6655 0.218-0.835 0.42z"/>
    <path d="m8.6126 33.854c0.9657 0.49 1.9894 0.454 3.3104-0.085 1.162-0.475 2.364-0.991 3.06-1.024-0.69583 0.03257-2.0217 0.32431-3.2019 0.54378-1.3434 0.24981-2.0017 0.03532-2.716-0.32699z"/>
    <path d="m8.9386 39.65c0.21557 0.13811 0.50391 0.18511 0.86225 0.15726 0.2752-0.021 0.6082-0.088 0.9992-0.202 0.68503-0.20005 1.5424-0.54595 2.4499-1.0074 2.4286-1.2348 3.7336-2.4733 4.3463-3.3006-0.57824 0.78073-2.1289 1.9269-4.5489 2.8434-0.93427 0.35384-1.7782 0.58149-2.4244 0.68173-0.36801 0.05708-0.64346 0.0687-0.8384 0.055-0.24999-0.01757-0.31917-0.07742-0.30664-0.0694z"/>
    <path d="m7.7088 43.691c0.12687 0.16569 0.30975 0.25972 0.50907 0.30189 0.18886 0.03996 0.40575 0.0373 0.65163 0.0032 0.3774-0.052 0.8661-0.186 1.4655-0.405 1.0516-0.38525 2.4399-1.0374 3.8945-1.878 1.4684-0.84859 2.8337-1.7909 3.8928-2.7122 1.4466-1.2585 1.9896-2.1801 2.19-2.8104-0.19936 0.627-0.81875 1.5157-2.3147 2.6574-1.0995 0.83908-2.5094 1.6864-4.0039 2.4245-1.4912 0.73635-2.8768 1.2704-3.9047 1.5549-0.58822 0.16281-1.0183 0.23311-1.3071 0.24327-0.18797 0.0066-0.29605-0.01325-0.33655-0.03104-0.035509-0.01561 0.019026-0.0066 0.057674 0.0439z"/>
    <path d="m94.403 42.183-0.36-0.35c-0.84549 0.88103-2.3842 2.8475-4.0445 4.5896-1.832 1.923-3.348 2.949-4.654 3.446 1.364-0.519 2.877-1.273 4.998-3.084 1.56-1.33 3.88-3.7 4.42-4.25l-0.36-0.35z"/>
    <path d="m88.713 42.733c-0.7395 0.13902-1.6627 0.55196-2.8336 1.2177-1.202 0.683-1.943 1.161-2.62 1.417 0.03337-0.01258 2.164-0.74794 2.8218-0.95956 1.452-0.466 1.99-0.536 2.817-0.692z"/>
    <path d="m102.46 39.973c-0.0469 0.0972-0.58636 0.21028-0.6381 0.31539-0.47859 0.97241-1.8375 3.9126-3.6481 7.0369-2.188 3.775-3.978 6.002-5.28 7.095 1.3753-1.1542 3.1918-3.096 5.6715-6.852 1.994-3.023 3.564-5.922 4.044-6.895 0.0523-0.10633-0.19016-0.60275-0.14327-0.69995z"/>
    <g fill-rule="evenodd">
     <path d="m63.713 47.243c-1.725 3.472-6.213 7.747-10.067 9.413-0.43442 0.18781-0.76314 0.58822-1.144 0.77787 2.8893-0.40322 4.7226-1.7194 7.0163-3.3544 3.641-1.434 6.135-4.109 7.727-6.256 0.0399-0.05703 0.07734-0.11031 0.11328-0.21289 0.01797-0.05129 0.0396-0.11758 0.0332-0.22461s-0.06562-0.26855-0.17969-0.36719l-0.3515 0.12504c-0.10368-0.08965-0.23487 0.24301-0.2403 0.1523-0.0054-0.0907-0.21483 0.0122-0.20508-0.01563 0.0195-0.05565 0.02377-0.04848 0.01172-0.03125-1.4095 2.0132-4.1787 4.7716-5.8544 5.6661 1.872-1.679 3.488-4.149 4.51-5.61z" style="color:#000000"/>
     <path d="m42.373 41.513c-1.5219 0.79343-1.8595 2.1088-2.373 3.5273 1.9214-0.02678 3.9963-0.14511 4.8223 1.7344 2.0836 0.02743 3.1526 1.0118 3.5371 2.793 2.2877-0.30898 3.2072 1.2487 2.8379 3.123 2.0858 1.1179 2.4206 3.8668 1.3649 4.7273l1.0926-0.46285c1.37-1.47 0.08-4.02-1.4-4.76 0.09703-2.1576-1.1062-3.7515-3.1621-3.666-0.63876-1.9017-1.9905-2.4157-3.6973-2.6621-1.07-1.41-2.43-1.61-3.97-1.71 0.13229-0.34211 0.27495-0.7577 0.39844-0.94336 0.20021-0.30102 0.44015-0.50321 1.0156-0.80469z" style="color:#000000"/>
     <path d="m95.373 24.903c-1.1663-3.371-0.47652-5.9758 1.8281-7.5523 0.59854-0.40945 1.3164-0.66843 2.1777-0.87269-4.9507-0.43491-5.7707 4.9366-4.0058 8.425z" style="color:#000000"/>
    </g>
    <path d="m57.753 46.563c-0.31537 0.39489-1.0034 1.4568-1.8805 2.5023-0.96889 1.155-1.7627 1.8045-2.3226 2.0284 0.62771-0.25108 1.4113-0.6263 2.6734-1.6711 1.074-0.889 2.379-2.2 2.65-2.539z"/>
    <path d="m51.863 44.523c-0.249 0.292-0.52 0.846-0.892 1.499-0.37034 0.65005-0.67884 1.072-0.9461 1.2324 0.3821-0.22926 0.61584-0.31448 1.328-0.90972 0.49-0.41 1.14-1.01 1.27-1.17z"/>
    <path d="m47.053 43.223-0.453-0.211c-0.16922 0.3631-0.32568 1.5526-0.57805 1.805 0.25236-0.25236 1.3012-0.98923 1.4845-1.3825l-0.46-0.21z"/>
   </g>
   <g fill-rule="evenodd">
    <g stroke-width=".93819px" transform="translate(683.55,-858.53)">
     <path d="m-609.73 881.69c-2.65-1.1-1.1-6.07 0.76-5.89-3.47-0.49-3.82 5.48-0.76 5.89z" style="color:#000000"/>
     <path d="m-610.03 889.86c-2.7946-0.64448-2.0896-5.8039-0.22437-5.9372-3.5068 0.0921-2.8605 6.0443 0.22437 5.9372z" style="color:#000000"/>
     <path d="m-607.94 896.48c-2.8524 0.29753-3.8604-4.8114-2.1394-5.5429-3.29 1.22-0.74 6.64 2.14 5.54z" style="color:#000000"/>
     <path d="m-614.51 894.62c-2.8613-0.19535-2.9794-5.4014-1.1586-5.8274-3.4483 0.64437-1.8707 6.42 1.1586 5.8274z" style="color:#000000"/>
     <path d="m-614.57 885.97c-2.8325-0.44954-2.4862-5.6454-0.6347-5.9074-3.492 0.33453-2.4353 6.2278 0.6347 5.9074z" style="color:#000000"/>
     <path d="m-610.57 902.16c-2.77 0.75-4.58-4.13-3-5.13-3.05 1.74 0.33 6.68 3 5.13z" style="color:#000000"/>
     <path d="m-603.59 901.79c-2.6981 0.97221-4.9006-3.7465-3.405-4.869-2.8977 1.9772 0.87008 6.6301 3.405 4.869z" style="color:#000000"/>
     <path d="m-620.23 889.88c-2.6487-1.0996-1.0966-6.0704 0.76479-5.892-3.47-0.49-3.82 5.48-0.76 5.89z" style="color:#000000"/>
     <path d="m-618.01 898.93c-2.8613-0.19535-2.9794-5.4014-1.1586-5.8274-3.4483 0.64437-1.8707 6.42 1.1586 5.8274z" style="color:#000000"/>
    </g>
    <path d="m69.353 46.283c-1.9726 0.71079-3.5829-2.7391-2.4894-3.5597-2.1186 1.4455 0.63612 4.8474 2.4894 3.5597z" style="color:#000000" stroke-width=".68592px"/>
    <path d="m63.883 45.413c-2.8676 0.04554-3.4223-5.1322-1.6437-5.7096-3.382 0.93158-1.3251 6.5544 1.6437 5.7096z" style="color:#000000" stroke-width=".93819px"/>
    <path d="m59.923 36.413c-2.784-0.69-1.994-5.837-0.127-5.94-3.508 0.034-2.959 5.997 0.127 5.94z" style="color:#000000" stroke-width=".93819px"/>
    <path d="m58.573 27.903c-1.8745-1.0867-0.2183-4.6553 1.1581-4.3368-2.552-0.713-3.409 3.729-1.158 4.337z" style="color:#000000" stroke-width=".70881px"/>
    <path d="m54.343 39.283c-2.4779-0.43268-2.1038-4.9847-0.47646-5.1894-3.067 0.246-2.22 5.429 0.476 5.189z" style="color:#000000" stroke-width=".82289px"/>
    <path d="m53.753 33.263c-2.516-1.376-0.443-6.153 1.389-5.777-3.402-0.859-4.388 5.046-1.389 5.777z" style="color:#000000" stroke-width=".93819px"/>
    <path d="m49.953 43.203c-2.373-0.588-1.7-4.977-0.108-5.064-2.9905 0.02944-2.5228 5.1122 0.10822 5.064z" style="color:#000000" stroke-width=".79982px"/>
    <path d="m47.393 35.303c-2.1736-0.66095-1.3365-4.7002 0.14481-4.7043-2.7764-0.1175-2.5885 4.6216-0.14481 4.7043z" style="color:#000000" stroke-width=".74319px"/>
    <path d="m42.523 40.773c-2.2362-0.49262-1.602-4.1662-0.10198-4.2395-2.818 0.02465-2.3773 4.2798 0.10198 4.2395z" style="color:#000000" stroke-width=".71041px"/>
    <path d="m40.173 34.283c-2.2839-0.96316-0.88791-4.7494 0.72323-4.5331-3.0047-0.52667-3.3704 4.0895-0.72323 4.5331z" style="color:#000000" stroke-width=".76898px"/>
    <path d="m36.293 39.223c-2.341-0.89601-0.9101-4.4182 0.74131-4.217-3.0798-0.48995-3.4547 3.8044-0.74131 4.217z" style="color:#000000" stroke-width=".75090px"/>
    <path d="m33.273 33.383c-2.055-0.787-0.799-3.88 0.651-3.703-2.704-0.43-3.034 3.341-0.651 3.703z" style="color:#000000" stroke-width=".65935px"/>
    <path d="m29.033 36.883c-2-0.76-0.78-3.77 0.63-3.6-2.6292-0.41827-2.9492 3.2478-0.63285 3.6z" style="color:#000000" stroke-width=".64104px"/>
    <path d="m25.523 32.783c-1.921-1.1009-0.19236-3.98 1.2215-3.5794-2.6212-0.8472-3.5334 2.8497-1.2215 3.5794z" style="color:#000000" stroke-width=".66329px"/>
    <path d="m58.393 44.453c-2.506 0.218-3.313-4.278-1.792-4.893-2.9012 1.0249-0.75268 5.8166 1.7923 4.8933z" style="color:#000000" stroke-width=".82289px"/>
    <path d="m64.823 23.403c-1.874-1.086-0.218-4.655 1.158-4.337-2.552-0.713-3.409 3.729-1.158 4.337z" style="color:#000000" stroke-width=".70881px"/>
    <path d="m123.55 24.412-0.01-0.515-0.92188-0.85938-1.2969-0.07813-2.4531 1.3594-3.62 3.671c1.4529-1.0875 7.9067-4.455 4.1562 1.2188l0.90625-0.76562 1.0938-1.1406 1.2188-1.1875 0.625-0.92188zm-3.219 10.18-0.1875-1-1.1562-0.28125-2.3125-0.3125h-2.3125l-2.5625 0.375-1.5625-0.21875-1.1562 0.75-2.1875 0.21875c1.4347 0.94487 2.1678 0.75752 3.75 0.39062-0.41894 1.5117-3.6861 1.8421-5.4844 1.7812l-0.704 0.75c-0.71875 0.11047-1.4375-0.02564-2.1562-0.5625l-1.907 1.08-2.4062 0.625-2.1562 0.3125-2.4062-0.09375c-2.6048 3.4943-9.0993 2.4823-11.273 0.30401-3.0871 1.9021-4.913 3.2263-21.987 2.3078-7.282-0.391-15.298-1.943-22.516-3.154-8.814-1.479-18.721-2.445-20.079-4.245 0.02266 0.74897 0.45214 1.4868 1.9716 2.1052l6.1005 1.1495 2.3927 0.89764 6.875 2.0625 7.2948 2.1337-1.4043 2.3965c2.425-1.0477 3.9546-0.53322 5.127 0.9707 2.9694-0.01157 3.2532 1.3202 4.2422 2.2988 2.7671-0.24666 4.2872 1.0374 5.082 2.3418 2.7102-1.3097 5.4129-1.6456 7.416-0.12695 0.825-0.72 1.687-0.52 1.916 0.07l2.372-2.67 4.2812-0.21875 8.625-1.8125 2.75-0.5625-0.71875 1.125 2.0625 1.1562-0.21875 2.5-0.625 0.96875c3.7716-0.2165 6.5506-3.5765 9.6562-6.2188 1.6473-0.68971 3.1533-1.1674 3.0625 0.75l1.75-2.125c1.3453-0.98676 2.0135-0.9577 2.0625 0l-1.7812 2.5625c1.2324-0.83848 1.7478-0.74165 1.625 0.1875 1.274-1.957 1.924-1.926 2.374-1.311l0.9375-1.4062c0.75099-0.78421 1.4881-1.5267 1.375 0.28125l1.2812-3 0.4375-1.9688 0.4375-0.71875 3.4062-1 0.77-0.915c0.269 0.28 0.677 0.38 1.009 0.57l2.5625-0.0625 2.0625-0.125 0.78125 0.65625 1.0625 0.09375zm-0.56-0.185c-0.01 0.275-0.63 0.655-0.82 0.943-0.56406 1.0654-2.7415 0.57907-2.4551-0.16016-0.53073-0.09486-0.61537 0.11003-0.76758 0.22852-1.2995 0.22657-3.5444 0.45017-4.7832-0.28906-0.24259-0.14477-0.2578-0.36394-0.28516-0.60742 0.14842-0.01656 0.10415-0.58539 0.44141-0.63086 0.94954-0.12802 2.4617-0.11061 3.0742-0.15234 0.44486-0.03031 1.5279-0.32406 1.9805-0.30664 1.2337 0.04749 3.1608 0.31121 3.5781 0.86328 0.0261 0.03455 0.035 0.07199 0.0332 0.11133z" fill-opacity=".29412" stroke-width="1px"/>
   </g>
   <circle cx="2311.8" cy="778.1" r="0" fill="#191919"/>
   <circle cx="2311.8" cy="777.1" r="0" fill="#fff"/>
   <circle cx="2449.6" cy="775.1" r="0" fill="#191919"/>
   <circle cx="2449.6" cy="775.1" r="0" fill="#fff"/>
   <circle cx="2379.7" cy="898" r="0" fill="#191919"/>
   <circle cx="2379.7" cy="897" r="0" fill="#fff"/>
   <path style="color:#000000" d="m51.606 8.7399c3.365 1.1575 1.148 3.8641-2.335 2.6331 2.1697 2.0108 0.77819 4.482-1.7168 4.3574 1.7068 1.6511 1.6946 3.4057-0.10547 4.3633l0.483 0.666c1.886-1.162 2.34-3.004 1.111-4.475 2.062-0.37739 2.5237-1.9937 1.8594-3.8945 2.2336-0.07362 3.8962-0.81546 3-2.7324 2.6102-0.088858 5.9223 0.89446 7.3821 1.0062l-0.036-0.7755c-3.178-0.413-6.131-1.2783-9.642-1.1487z" fill-rule="evenodd" stroke-width="1px"/>
  </g>
 </g>
</svg>
