<?xml version="1.0" encoding="UTF-8"?>
<svg viewBox="0 0 744.09448819 1052.3622047" xmlns="http://www.w3.org/2000/svg">
 <g transform="translate(-68.69 -28.789)">
  <path d="m690.52 601.24c-1.4205 5.7293 20.273 2.6726 21.602-1.5146s-1.2565-19.335-5.7452-33.661-9.3289-34.678-10.756-45.227c-2.3336-17.248-3.9642-19.631-16.189-23.666-7.4766-2.4676-19.09-9.6204-25.807-15.895-12.08-11.285-12.199-11.813-10.927-48.665 1.1206-32.482 2.5078-38.558 10.823-47.409 9.0872-9.673 9.2007-10.485 2.3975-17.19-6.7706-6.6725-7.4437-6.6279-12.996 0.8616-3.2203 4.3443-5.8551 10.295-5.8551 13.225 0 8.2824-9.302 6.3202-24.641-5.198-7.7082-5.7882-18.593-12.359-24.188-14.601-14.764-5.9171-52.778-4.5421-84.412 3.0533-15.119 3.63-44.019 7.0862-64.222 7.6802s-47.151 4.1084-59.883 7.8096c-21.06 6.1223-27.265 6.1906-68.766 0.75617-25.089-3.2853-47.113-5.0482-48.943-3.9176s-9.746-2.8407-17.592-8.8253c-12.292-9.3757-14.254-13.207-14.176-27.692 0.12207-23.262 12.985-49.535 29.175-59.597 13.087-8.1337 21.071-8.5148 37.876-1.8081 8.0068 3.1953 8.0142 3.1064 0.459-5.5009-11.192-12.75-31.559-15.411-47.871-6.2551-15.217 8.542-27.532 21.367-27.732 28.883-0.0733 2.7975-1.7945 5.0864-3.8226 5.0864-3.661 0-10.684 37.137-9.2337 48.83 0.41628 3.357 1.4515 11.597 2.3003 18.311 1.9426 15.365 6.7474 27.654 12.244 31.317 5.0624 3.373 5.4274 31.044 0.72675 55.085-2.8525 14.587-2.273 17.647 3.7835 19.971 3.9336 1.5094 10.547 0.62425 14.696-1.9671 6.6079-4.1267 8.3324-2.8256 13.892 10.481 5.0095 11.99 7.1527 13.92 10.165 9.1558 5.3053-8.3904 4.874-21.789-0.88707-27.55-3.7261-3.726-2.6344-7.1651 4.7784-15.056 5.2842-5.6247 11.138-10.227 13.009-10.227 8.9745 0 47.291 35.899 52.118 48.83 2.9241 7.8331 8.7047 16.635 12.846 19.559 10.679 7.5408 9.4742 13.327-6.7124 32.237-7.8331 9.1512-14.242 18.75-14.242 21.331 0 14.528 24.904 78.807 32.304 83.381 8.3621 5.1679 9.3521-17.576 1.27-29.177-8.7255-12.525-17.298-35.24-17.298-45.837 0-6.5797 51.155-44.872 59.944-44.872 2.3341 0 5.309 12.36 6.6111 27.469s3.5792 34.664 5.0596 43.461c3.344 19.872-6.9171 26.236-6.238 44.877 4.7898 6.6065 18.061 4.7501 15.524-0.31292-2.5375-2.0418-2.3727-5.6384 1.8274-9.1243 3.8816-3.2214 4.5928-10.792 2.6238-27.928-1.4856-12.93-0.69745-39.988 1.7514-60.13l4.452-36.622 30.519-2.8838c16.785-1.5861 37.731-4.9676 46.546-7.5146 34.586-9.9925 35.931-9.5685 60.741 19.135 12.609 14.588 22.925 30.095 22.925 34.461 0 11.036-17.715 43.763-32.02 59.157-8.0125 9.8875 16.182 3.9031 12.628 4.9001 1.0588-3.0394 4.9395-4.9881 8.6241-4.3305 4.1224 0.73582 6.7739-1.6115 6.9-6.1037 0.10987-4.0146 7.1686-20.909 15.684-37.542l15.482-30.243-13.649-17.881c-25.439-33.326-18.649-35.57 33.836-11.181 33.102 15.382 38.692 22.209 47.77 58.34 10.236 40.737-0.20346 20.999-1.1113 35.463z"/>
 </g>
</svg>
