<?xml version="1.0" encoding="UTF-8"?>
<svg viewBox="0 0 3116 4591" xmlns="http://www.w3.org/2000/svg">
 <defs>
  <filter id="b" x="-.44471" y="-.11408" width="1.8894" height="1.2282">
   <feGaussianBlur stdDeviation="7.60094"/>
  </filter>
  <filter id="a" x="-.26893" y="-.26017" width="1.5378" height="1.5203">
   <feGaussianBlur stdDeviation="2.01745"/>
  </filter>
 </defs>
 <path d="m1517.4 792.73 116.72 48.633 179.94 63.224 223.71-34.043 189.67 9.7267 223.71 82.677 160.49 106.99 160.49 189.67 121.58 233.44 19.453 204.26-43.77 184.81-102.13 165.35-116.72 165.35-58.36 126.45-29.18 155.63-111.86-43.77-145.9-199.4-145.9-209.12-150.76-238.3-82.677-184.81-184.81-228.58-170.22-179.94-38.907-121.58-29.18-165.35 14.59-131.31z" fill="#504826" stroke="#000"/>
 <path transform="matrix(.16152,.98687,-.97857,-.2059,0,0)" d="m674.62-1755.8h119.2a105.81 122.44 0 0 1 105.81 122.44v30.296a105.81 122.44 0 0 1 -105.81 122.44h-119.2a105.81 122.44 0 0 1 -105.81 -122.44v-30.296a105.81 122.44 0 0 1 105.81 -122.44" fill="#483737" stroke="#4c3a29" stroke-linecap="round" stroke-linejoin="round" stroke-width="13.992"/>
 <path transform="matrix(.7162,.69789,-.97029,.24194,0,0)" d="m1675.1-903.01h98.106a87.08 98.448 0 0 1 87.08 98.448v24.359a87.08 98.448 0 0 1 -87.08 98.448h-98.106a87.08 98.448 0 0 1 -87.08 -98.448v-24.359a87.08 98.448 0 0 1 87.08 -98.448" fill="#483737" stroke="#4c3a29" stroke-linecap="round" stroke-linejoin="round" stroke-width="12.308"/>
 <path transform="matrix(.4247,.90534,-.77335,.63398,0,0)" d="m2368-1366h123.54a109.65 97.391 0 0 1 109.65 97.391v24.098a109.65 97.391 0 0 1 -109.65 97.391h-123.54a109.65 97.391 0 0 1 -109.65 -97.391v-24.098a109.65 97.391 0 0 1 109.65 -97.391" fill="#483737" stroke="#4c3a29" stroke-linecap="round" stroke-linejoin="round" stroke-width="13.737"/>
 <path d="m1526.9 297.8c-20.238 16.666 4.5165 45.505 5.5279 66.202 65.41 193.89 105.88 395.64 148.43 596.13-54.816 268.08-211.15 503.23-281.14 767.39-13.461 43.832 3.3646 88.851-0.1791 133.55-15.67-19.706-25.97-57.106-59.12-48.33-15.53 2.683 3.5843-21.365 3.1915-28.42 10.405-34.134 40.301-67.297 32.828-104.56-15.414-21.439-45.05-0.4343-67.023-2.5837-45.901 4.4074-110.52 0.7207-130.55 51.369-11.661 28.642-13.106 60.456-10.183 90.58-23.025 26.746-62.917 14.232-84.162-8.0497-33.896-22.055-62.616-62.088-105.36-65.66-39.705 13.871-51.773 61.73-68.543 95.899-34.252 94.646 15.616 192.06 16.777 287.84 0.24934 156.6-16.701 312.74-20.213 469.31-1.722 81.902-9.4893 162.64-23.312 243.02-11.223 121.21-13.822 243.67-7.6711 365.16 20.04 87.356 70.5 164.34 114.35 241.43 57.641 87.123 130.68 164.36 208.22 234.01 66.301 54.395 152.65 75.344 221.89 124.93 34.141 51.844 102.54 72.558 161.25 64.287 9.0635-24.894-27.044-37.952-36.627-59.424-12.791-18.942-26.154-41.361-27.052-64.135 42.986 49.039 88.971 96.668 147.01 128.23 62.539 39.902 139.3 55.755 211.97 38.339 39.736-10.585 85.45-22.74 111.7-56.384 13.468-34.765-34.406-48.902-54.865-65.959-82.282-56.683-113.3-158.88-146.24-247.62-70.942-199.32-46.705-414.79-30.054-621.24 9.1486-100.63 31.758-199.5 33.887-301.06 4.0181-106.6 14.85-212.65 27.438-318.23 3.563-74.954-10.566-225.36-50.244-146.63-24.567-6.4302 8.1695-64.563 13.236-100.36 2.5631-30.673-19.747-56.079-34.043-80.549 15.294 10.59 40.365 43.935 58.36 21.125 19.682-114.89 34.07-231.34 55.497-346.41 34.069-222.27 78.791-442.66 116.54-664.29 10.148-86.377 36.93-176.49 11.996-262.64-37.561-97.983-135.45-150.98-212.51-214.31-56.658-45.212-115.49-86.758-162.88-142.54-26.897-22.934-47.138-59.965-82.056-70.611-2.0855-0.11884-4.0543 0.79686-6.0792 1.2158z" fill="#fff"/>
 <path d="m560.78 810.12c-49.728 3.8603-80.462 52.345-102.59 91.796-26.858 71.139-21.987 151.5-6.6871 224.63 14.201 25.129 40.857-2.8839 52.585-15.958 27.089-29.855-7.5582-67.446 1.8238-101.52 5.6215-34.27 22.062-85.621 65.807-81.917 49.414-0.85836 83.985 48.687 78.421 95.291-3.1353 24.062 19.223 40.836 41.034 33.891 21.203-1.6413 58.331-8.3994 48.633-38.147-19.67-79.295-60.657-163.1-136.17-201.98-13.682-4.9202-28.343-6.9948-42.858-6.0792z" fill="#fff"/>
 <path d="m981.61 744.77c-86.17 23.806-151.94 118.54-136.78 208.06 7.2792 24.692 15.961 59.403 43.314 67.479 18.317-4.9169 41.626-9.3462 53.801-24.621 1.855-31.721-23.038-61.514-11.095-94.531 12.088-59.277 102.19-72.895 132.68-21.125 25.612 31.201 30.382 71.393 33.132 109.88 15.297 27.374 55.05 15.477 81.005 18.845 33.438-7.8403 0.246-50.566-0.044-73.544-16.164-71.04-51.96-146.86-125.03-173.73-22.654-8.3251-46.646-16.618-70.974-16.718z" fill="#fff"/>
 <g transform="translate(-3505 9.1367)">
  <path d="m5163.8 4341c-47.91-156.12-249.34-92.916-370.91-69.456-184.18 17.473 159.53-147.97 59.933-162.7-63.043-51.361-306 61.359-191.83-62.587 106.59-36.01 122.97-45.432 237.73-70.621 87.79-47.68 134.61-98.098 14.616-139.2-77.23-93.18-239.04-95.129-306.93-211.38-182.43-171.67-287.76-413.7-312.46-660.14-3.4041-41.079 2.0591-139.98-34.011-118.13-74.711 45.267-138.13 70.171-199.61 65.18-42.648-3.4621 132.36-169.46 143.85-210.6 7.2625-25.987 103.79-192.93 109.14-243.95 7.9447-190.32 18.964-383.76-18.008-572-64.187-132.88-186.53-227.22-281.36-322.45-144.08-144.67-224.65-502.48-145.35-747.57 101.76-196.04 319.55-328.4 553.97-330.43 170.32 38.499 244.7 70.152 374.42 175.83 79.074 72.453 154.84 125.7 195.92 222.85-8.7303-68.896 8.4452-182.99 23.387-162.57 27.029 36.936 42.633 37.617 108.43 73.248-31.272-155.47-54.071-262.94-110.79-412.41-19.902-74.441-83.17-313.26 13.68-299-18.102 173.72 126.51 288.01 252.3 379.58 110.85 98.338 289.88 180.28 264 357.92 121.27 24.84 324.64 37.9 454.31 135.83 219.13 151.68 419.51 375.14 433.57 654.17 30.808 228.19-133.77 411.58-245.56 591.87-74.015 95.971-112.36 282.12-76.945 346.01-35.026 4.9752-98.991-62.612-99.827-43.585-1.3726 31.264-18.662 115.22-15.278 146.9 6.7697 63.35-3.4969 100.49-20.357 186.81-40.552 249.41-150.39 472.04-83.524 715.53 18.185 148.62 107.83 273.71 176.47 402.64-46.148 73.866-173.2 62.341-241.47-5.0401-70.594-62.156-171.21-151.91-263-72.634-68.553 36.235-163.98 27.676-214.88 85.995-65.722 60.172-144.7 159.16 3.3816 157.24 74.663 13.38 347.6 142.65 124.98 138.48-107.43-12.478-244.05-27.253-301.05 84.283l-10.938-3.9167zm14.728-66.479c80.455-94.068 205.09-50.886 272.56-73.349-65.598-64.788-251.89-18.662-225.84-127.17 24.926-61.333 123.15-173.23 32.303-134.88-48.101 136.29-184.28 189.09-310.98 209.88-88.502 12.919-154.68 76.049-28.525 47.963 119.27-6.6446 223.75-10.344 260.49 77.557zm-320.22-24.046c-2.3337-3.4347-2.8802 1.9056 0 0zm55.5-143.12c89.862-28.995 287.86-32.079 98.164-66.65-13.782-50.697 102.09-182.15 16.472-144.07-57.861 159.5-225.61 109.26-280.89 163.22 61.666 2.276 136.55-2.8787 166.25 47.5zm236.5-68.944c113.28-66.473 54.326-179.84-37.473-132.01-43.401 125.82-114.63 84.949 37.473 132.01zm780.86-79.076c48.526-23.856 127.47 8.4885 42.779-82.92-143.97-226.79-184.63-513.7-105.32-770.95 42.711-158.79 56.622-314.68 77.648-477.54 12.729-173.77-71.917-318.23-174.74-445.5-105.33-158.44-229.85-305.7-301.3-484-94.493-227.84-78.996 149.14-114.04 226.46-10.864 155.77 30.006 309.64-10.888 465.04-28.358 130.86 2.5616 254.9-32.546 383.95-29.085 216.47-51.236 440.12-18.26 656.96 46.564 133.86 81.459 305.93 224.04 367.68 56.439 58.924 166.75-63.298 237.25 47.69 50.436 41.697 111.63 114.43 175.36 113.14zm-553.5-60.226c88.187-24.793 156.6-61.811 76.396-94.97-97.892-46.544-141.41-184.95-179.13-289.7-70.626-219.65-32.826-456.26-14.143-681.48 41.081-166.5 17.177-337.3 51.517-505.05 15.87-88.322-14.702-268.47-14.702-268.47-0.6334-0.053-0.3305 20.435-31.824 74.117 7.0994-76.533 35.556-92.778-29.983-175.32-67.658-85.208 42.121 20.654 66.92 40.821 18.623-194.69 67.557-393.78 94.207-603.81 37.955-196.86 79.352-394.33 101.62-593.28 13.409-170.13-170.03-237.39-272.25-337-89.17-41.366-233.62-303.81-151.35-84.559 82.934 157.29 140.94 395.46 171.95 604.45-67.454 278.74-219.41 554.94-341.8 766.86 11.485 55.475 11.187 86.943 10.703 127-29.663-28.029-27.9-32.878-51.2-71.921-60.534 32.811-37.458-12.21-10.452-68.193 23.132-44.36 43.835-85.47-17.726-65.717-120.13-0.8586-165.38 13.852-153.1 141.54-95.552 100.94-183.43-191.1-247.1-6.9916-71.364 114.58 37.624 264.8 3.1645 394.98-11.765 170.75-15.609 347.89-21.742 515.9-35.86 147.04-29.784 309.87-31.894 453.19-2.5613 45.028 61.529 176.69 48.629 138.41 41.355 92.462 83.952 156.08 152.38 236 45.892 39.55 79.194 90.259 124.3 123 65.302 52.52 145.72 71.857 217.42 114.68 29.497 62.811 105.74 76.067 171.39 73.793-93.983-34.051-129.02-235.91-25.988-72.563 82.108 75.091 189.09 139.99 303.79 114.29l1e-4 -4e-4zm-654.36-220.25c2.8802-1.9056 2.3337 3.4347 0 0zm-48-40.5c-1.1563-3.5186-2.6705 3.277 0 0zm-41-43.441c-2.5549-3.5875-2.5549 3.5875 0 0zm654-185c-2.5549-3.5875-2.5549 3.5875 0 0zm-803.32-2.1875c-1.925 0.4337 1.4325 4.3834 0 0zm-8.6831-11.254c-2.3337-3.4347-2.8802 1.9056 0 0zm-5-5.3923c-3.9256-6.118-1.5961 3.6631 0 0zm-50.229-13.354c-0.808-5.0381-4.4459 2.2077 0 0zm8.2292-79.812c-2.555-3.5875-2.555 3.5875 0 0zm-87.046-356.5c34.729-273.83 22.848-552.67 39.775-829.88-22.023-119.79-6.2249-224.2-72.577-320.17-20.665-78.166-60.601-142.75-112.5-203.59-86.087-100.91-213.66-200.44-212.85-342.36-62.478-47.851-64.217-128.28-75.089-208.5-13.456-105.36 33.328-252.45 151.3-268.11 129.88-6.3281 187.37 157.37 212.36 241.87 69.96-3.9386 21.515-0.01 75.131-7.3875-15.677-36.295-39.473-189.98 39.263-243.77 84.477-83.882 207.62-52.27 271.04 26.497 61.289 76.122 69.334 199.63 142.15 264.27 124.57 36.825 193.78 217.18 129.83 342.99-40.478 81.059-29.047 272.29 17.91 90.142 22.297-104.89 133.94-212.52 103.55-312.81-48.306-78.746-37.885-178.72-105.3-243.37-44.309-97.254-104.15-175.61-192.44-243.85-125.49-113.86-268.7-168.3-436.62-155.54-147.54-10.499-359.18 187.14-465.31 377.32 13.309 221.92 55.023 441.9 153.93 620.59 91.089 66.062 197.18 125.8 254.17 223.8 118.98 134.15 100.18 330.79 109.82 497.16-5.7367 236.93-37.951 469.91-29.442 706.09l1.9177-11.393zm1701.1-496.04c18.789-114.16 32.01-187.2 103.74-280.59 69.172-90.061 128.78-185.31 184.05-284.6 101.81-170.35 57.885-379.78-23.786-548.91-120.84-186.34-299.2-367.94-529.01-429.09-88.476-19.602-186.3-56.128-248.76-24.351-29.979 188.86-81.911 480.28-107.61 669.72 112.34 142.19 163.4 329.16 286.33 467.36 56.872 75.234 117.75 161.63 164.77 237.23 61.136 63.886 71.283 110.57 131.39 173.77l38.907 19.453zm-203.95-172.13c-2.2503 1.3068 3.3463 4.5667 0 0zm311.24-14.544c-5.6293 1.5599 2.3992 3.8892 0 0zm-1784-444.68c52.017-28.758 83.596-133.94 48.391-140.18-41.95-7.4331-36.248-38.944-68.732-50.902-14.724-5.4207-22.07 69.012-14.275 105.26s21.445 70.688 34.616 85.82zm270.09-19.19c48.047-60.605-11.636-333.31-77.205-136.86-87.203 3.6381 38.55 145.66 77.205 136.86zm-128.04-75.35c11.987-100.1-114 3.5114 0 0zm318.36-70.38c61.41 2.7044 118.55-73.573-15.319-18.633-36.16 12.818-156.18 5.2988-106.76 34.109 22.383-0.5809 29.84 2.5701 122.08-15.475zm-321.15 1.4713c55.656-92.884 124.27-117.97 186.13-35.322 127 14.661 201.86-44.183 176.16-171.83 88.163-91.624 21.411-416.64-96.589-330.67-23.691 43.143-39.208 35.643-71.732 48.683-96.319 16.466-152.89 122.39-223.1 166.42-40.107 51.814-135.05 44.282-191.68 8.0182-77.095-49.335-163.89-126.82-260.36-85.158 20.554 150.37 202.62 322.47 202.62 322.47s83.238 137.12 83.069 34.101c48.908-38.156 103.56 26.688 103.56 26.688s60.854-6.3341 91.922 16.604zm-429.17-232.66c-1.2419-3.9424-3.5883 3.8072 0 0zm1348.5-83c-2.5549-3.5875-2.5549 3.5875 0 0zm-1026.5-11.375c113.54-49.908 173.84-196.16 309.4-203.33 123.26-104.79-106.31-107.08-175.57-112.57-120.19 16.212-233.52 82.662-358.83 64.99-110.33-23.282-290.02 186.31-86.5 130.9 120.73-2.6308 189.8 141.85 311.5 120.02zm536.5-8.6246c-1.2094-3.6561-2.4663 3.5623 0 0zm157.47-165.72c27.907-102.13 107.65-302.06-42.343-336.71-75.048-11.847 18.104 298.19 42.343 336.71zm-348.87-8.0109c-4.3631 2.3584 2.8782 2.8818 0 0zm-778.39-15.109c33.685-20.553 30.486-25.155 48.097-46.409-7.4144-37.37-19.781-55.406-13.178-82.44 8.9567-36.669 10.551-97.271 55.254-103.15 44.614-20.578 99.105 28.605 107.78 84.831 6.8117 23.163-6.6135 49.131 5.0889 58.75 20.3-0.6981 40.942 1.5851 71.581-8.5719-16.381-126.03-152.61-328.57-260.35-151.67-45.393 71.761-22.53 183.45-14.268 248.66zm423.78-121.04c13.43-9.6508 53.463-20.198 53.463-20.198s-25.942-56.454-20.101-79.687c4.6325-62.654 57.613-94.989 103.93-77.166 45.713 17.591 98.538 114.96 78.137 156.26 26.024 5.7797 31.662 6.9828 75.389 5.1436-30.621-94.504-36.605-229.91-194.73-246.03-120.62 35.197-140.69 178.82-96.086 261.68z"/>
 </g>
 <path d="m1031.1 1012c-108.14 2.2768-206.1 63.088-314.9 61.248-54.978 0.9755-116.36-5.274-161.25 33.284-29.077 25.33-71.856 51.776-73.406 94.379 7.4882 37.85 56.376 28.272 84.501 26.14 80.875-15.26 143.76 51.597 209.5 86.988 44.984 28.631 119.25 42.326 165.43 6.6313 85.488-54.369 131-149.73 232.53-177.82 32.993-1.2535 63.81-27.112 74.166-58.512 0.2714-44.684-54.197-57.897-89.436-64.406-41.86-7.6616-84.692-8.2932-127.13-7.9362z" fill="#ff7f2a"/>
 <path d="m1775.5 3933.3c-40.893 2.229-42.38 52.487-66.567 75.99-57.156 82.008-158.31 114.78-250.96 136.12-40.729 10.354-113.79 42.191-142.72 68.213-70.834 58.398 53.325 8.9122 70.097 5.4624 77.076-0.2586 161.12-18.116 233.01 17.266 18.067 11.059 36.692 25.607 43.01 46.05 25.678 12.236 44.486-23.01 67.631-30.092 66.157-32.631 179.29-12.816 250.45-19.424 59.556 12.014-47.204-48.31-64.593-50.462-55.292-21.206-117.41-22.785-171.11-47.442-30.526-27.24-5.652-71.101 11.908-98.06 13.42-30.609 44.768-59.793 40.069-95.106-3.2608-8.0979-12.643-9.4472-20.213-8.5109z" fill="#ff7f2a"/>
 <path d="m1545.4 3889.4c-37.097 1.8826-40.648 46.719-62.16 68.999-57.228 69.753-224.78 77.38-300.2 113.29-60.442 30.964 72.525 12.278 91.527 6.3146 45.482 3.2007 94.322 7.5671 128.57 40.579 39.127 6.3954 78.809-11.237 117.56-16.356 21.704-6.9462 64.924-19.374 82.569-34.026 10.086-17.814-44.687-14.36-60.613-20.288-12.344-3.9973-34.913-2.2301-24.621-20.973 9.7858-42.989 41.326-80.663 45.138-125.08-1.163-8.49-9.5709-13.81-17.782-12.462z" fill="#ff7f2a"/>
 <path d="m1300.9 1100.1c-42.25 5.2819-60.705 53.988-103.19 59.728-101.6 24.104-158.52 119.54-239.16 176.63-52.965 44.638-129.9 29.24-182.82-7.0728-67.759-38.918-136.77-99.866-220.44-89.009-28.737 0.2195-57.86 14.563-39.515 46.658 40.777 139.17 147.38 244.36 240 350.94 10.728 14.888 41.226 51.283 48.004 7.4312 11.405-11.318-1.4511-40.618 22.189-37.691 40.403-10.457 67.741 48.367 107.6 43.77 24.624-2.0794 50.344 17.724 73.71 7.599 29.96-27.869 54.562-74.901 101.83-73.254 36.651-0.1086 57.01 36.44 85.412 51.673 60.518-1.8552 136.34-8.6149 166.87-70.063 28.84-43.416-3.402-101.73 30.548-142.4 32.489-82.457 24.26-179.13-9.8786-259.58-15.186-31.261-41.536-69.371-81.157-65.351z" fill="#fff"/>
 <path d="m817.87 1705.4c12.008 55.602 12.641 88.635 37.995 120.52 25.509 17.242 46.135-36.27 59.12-54.409 37.19-41.709 37.083-55.422 8.3589-83.893-24.932-23.957-58.666-53.149-86.932-67.631-20.937 19.904-15.752 56.187-18.542 85.412z" fill="#008033"/>
 <path d="m1024.6 1671.7c-24.314 25.687 6.6944 60.17 21.885 82.069 22.064 24.47 49.572 60.749 86.172 55.776 29.87-21.444 22.108-66.227 23.271-98.474-4.7338-41.26-5.2026-91.434-45.156-115.36-42.2-5.1042-56.681 54.287-86.172 75.99z" fill="#008033"/>
 <path d="m983.44 1675.6c-23.075 2.733-50.889 34.679-25.685 52.889 17.959 14.59 59.942 14.713 56.384-16.718-1.8964-15.392-11.79-38.261-30.7-36.171z" fill="#008033"/>
 <path d="m1391.3 1608.4c-36.018 2.4516-83.636 30.95-119.73 32.872-26.596 4.2029-68.276 7.2087-93.759 16.9-7.7237 3.3613-16.267 14.129-7.0379 19.62 11.193 14.246 46.747-1.3173 62.485-1.7618 39.372-4.4435 77.381-9.1395 116.3-16.052 17.8-5.1209 30.922-10.79 47.299-22.05 2.3818-11.489 6.5521-1.8117-5.5598-29.528z" fill="#008033"/>
 <path d="m1907.2 1618.1c-34.385 20.973-36.997 69.581-47.154 103.96-9.6861 109.63-50.185 233.38-37.1 344.82 9.8841 119.01 21.202 244.23-4.7285 361.09-17.502 126.38-3.2325 255.22-30.624 380.58-26.63 211.77-57.13 439.02-15.39 650.67 39.008 137.56 105.54 312.13 238.97 352.52 41.699 38.633 107.14 10.112 156.31 14.372 58.895-14.099 92.143 55.199 133.21 84.59 46.514 36.324 106.63 94.952 172.85 68.656 22.228-2.2375 69.003-23.176 41.052-54.378-148.06-204.01-201.61-469.81-152.82-716.37 44.267-207.1 108.69-434.66 110.05-647.37-5.3992-144.85-96.924-263.42-185.37-373.84-118.42-168.88-255.23-332.06-337.35-521.78-8.1314-12.275-24.006-49.656-41.912-47.5z" fill="#0a0a13"/>
 <path d="m839.53 519.18c-120.65-4.9298-243.65 47.072-325.9 132.68-84.587 89.834-142.59 148.01-174.23 268.75-14.122 211.01 23.347 436.65 127.95 591.13 84.863 109.51 240.3 160.41 309.13 283.92 84.436 126.46 71.754 285 79.095 430.72-2.5357 215.7-67.57 524.75-27.511 741.73 26.905 20.611 32.671-145.41 38.908-164.91 17.357-227.15 40.053-457.22 41.881-685.08-10.762-122.7-43.9-251.26-107.23-359.43-66.309-166.51-241.44-263.14-305.2-429.43 18.46-46.786-9.9809-108.81-49.649-147.23-3.4581-105.75-48.118-198.21-13.326-295.96 28.224-73.83 117.38-130.17 191.5-87.692 78.574 41.913 119.82 162.47 135.49 241.75 19.561 17.014 73.782-2.8803 91.321-22.032-3.6041-44.49-23.019-100.59-16.009-146.4 3.7819-88.953 101.36-160.17 188.33-142.96 88.763 3.4907 139.56 90.215 167.09 166.51 34.04 68.967 54.033 199.2 140.26 186.41 100.85 94.237 110.22 206.91 75.386 335.08-10.67 45.316-31.182 123.31-10.249 167.89 26.7 12.278 46.804-41.627 54.748-57.707 25.92-99.329 110.58-229.82 126.24-331.3-4.5014-66.091-31.973-92.738-61.794-171.68-13.004-82.992-86.287-139.95-122.03-213.81-94.752-157.32-203.58-230.63-382.94-263.61-46.059-7.1528-124.42-28.075-171.26-27.336z" fill="#0a0a13"/>
 <path transform="matrix(.71038 -.31684 .45259 1.0147 -154.37 458.1)" d="m630.86 675.65a21.885 21.885 0 1 1 -0.52671 -1.2861" fill="#fff"/>
 <path transform="matrix(.71038 -.31684 .45259 1.0147 273.61 387.58)" d="m630.86 675.65a21.885 21.885 0 1 1 -0.52671 -1.2861" fill="#fff"/>
 <path d="m927.97 1081.5c6.7382-0.3371 0.39786-0.059 3.4389 5.2627 0.81055 1.4184 3.5084-0.6079 4.6547-0.6079" fill="none" filter="url(#a)" stroke="#4c3a29" stroke-linecap="round" stroke-width="10.1"/>
 <path d="m830.5 1093.6c0.27909 75.672 11.868 122.57 30.95 159.91" fill="none" filter="url(#b)" stroke="#885c2d" stroke-width="7.5"/>
 <path d="m729.1 1114.5c6.7382-0.3371 0.39786-0.059 3.4389 5.2627 0.81055 1.4184 3.5084-0.6079 4.6547-0.6079" fill="none" filter="url(#a)" stroke="#4c3a29" stroke-linecap="round" stroke-width="10.1"/>
 <path d="m818.46 2599.9c-40.875 71.085-120.76 216.05-178.82 261.36 43.559 1.4021 97.436-51.103 141-75.656 34.388-50.056 28.095-127.43 37.828-185.7z" fill="#fff" stroke="#000"/>
 <path transform="matrix(.59318,.80507,-.53313,.84603,0,0)" d="m3061.4-1183.7h116.21a103.15 90.094 0 0 1 103.15 90.094v22.292a103.15 90.094 0 0 1 -103.15 90.094h-116.21a103.15 90.094 0 0 1 -103.15 -90.094v-22.292a103.15 90.094 0 0 1 103.15 -90.094" fill="#483737" stroke="#4c3a29" stroke-linecap="round" stroke-linejoin="round" stroke-width="12.815"/>
 <path transform="matrix(.55071,.8347,-.6233,.78198,0,0)" d="m3344.1-1034.9h128a113.61 99.02 0 0 1 113.61 99.02v24.501a113.61 99.02 0 0 1 -113.61 99.02h-128a113.61 99.02 0 0 1 -113.61 -99.02v-24.501a113.61 99.02 0 0 1 113.61 -99.02" fill="#483737" stroke="#4c3a29" stroke-linecap="round" stroke-linejoin="round" stroke-width="14.1"/>
 <path transform="matrix(.54362,.83933,-.72892,.6846,0,0)" d="m2467.9-1294.1h111.81a99.243 95.439 0 0 1 99.243 95.439v23.615a99.243 95.439 0 0 1 -99.243 95.439h-111.81a99.243 95.439 0 0 1 -99.243 -95.439v-23.615a99.243 95.439 0 0 1 99.243 -95.439" fill="#483737" stroke="#4c3a29" stroke-linecap="round" stroke-linejoin="round" stroke-width="12.937"/>
 <path transform="matrix(.53443,.84521,-.70561,.7086,0,0)" d="m2826-1073.5h129.84a115.25 100.72 0 0 1 115.25 100.72v24.923a115.25 100.72 0 0 1 -115.25 100.72h-129.84a115.25 100.72 0 0 1 -115.25 -100.72v-24.923a115.25 100.72 0 0 1 115.25 -100.72" fill="#483737" stroke="#4c3a29" stroke-linecap="round" stroke-linejoin="round" stroke-width="14.322"/>
 <path transform="matrix(.49163,.8708,-.77871,.62738,0,0)" d="m3106.4-1486.8h100.15a88.893 87.027 0 0 1 88.893 87.027v21.533a88.893 87.027 0 0 1 -88.893 87.027h-100.15a88.893 87.027 0 0 1 -88.893 -87.027v-21.533a88.893 87.027 0 0 1 88.893 -87.027" fill="#483737" stroke="#4c3a29" stroke-linecap="round" stroke-linejoin="round" stroke-width="11.692"/>
 <path transform="matrix(.80469,.59369,-.8321,.55463,0,0)" d="m2184.7-638.02h57.096a50.679 51.332 0 0 1 50.679 51.332v12.701a50.679 51.332 0 0 1 -50.679 51.332h-57.096a50.679 51.332 0 0 1 -50.679 -51.332v-12.701a50.679 51.332 0 0 1 50.679 -51.332" fill="#483737" stroke="#4c3a29" stroke-linecap="round" stroke-linejoin="round" stroke-width="6.7802"/>
 <path transform="matrix(.66309,.74854,-.88046,.47412,0,0)" d="m2168.6-1181h79.043a70.16 75.555 0 0 1 70.16 75.555v18.695a70.16 75.555 0 0 1 -70.16 75.555h-79.043a70.16 75.555 0 0 1 -70.16 -75.555v-18.695a70.16 75.555 0 0 1 70.16 -75.555" fill="#483737" stroke="#4c3a29" stroke-linecap="round" stroke-linejoin="round" stroke-width="9.6786"/>
 <path transform="matrix(.51884,.85487,-.75482,.65593,0,0)" d="m2718.1-1615.8h97.03a86.125 79.932 0 0 1 86.125 79.932v19.778a86.125 79.932 0 0 1 -86.125 79.932h-97.03a86.125 79.932 0 0 1 -86.125 -79.932v-19.778a86.125 79.932 0 0 1 86.125 -79.932" fill="#483737" stroke="#4c3a29" stroke-linecap="round" stroke-linejoin="round" stroke-width="11.03"/>
 <path transform="matrix(.53215,.84665,-.83034,-.55726,0,0)" d="m-1241.5-3994.6h70.971a62.995 68.031 0 0 1 62.995 68.031v16.833a62.995 68.031 0 0 1 -62.995 68.031h-70.971a62.995 68.031 0 0 1 -62.995 -68.031v-16.833a62.995 68.031 0 0 1 62.995 -68.031" fill="#483737" stroke="#4c3a29" stroke-linecap="round" stroke-linejoin="round" stroke-width="8.7025"/>
 <path transform="matrix(.48602,.87395,-.55502,.83184,0,0)" d="m3547.4-1906.6h95.666a84.915 80.936 0 0 1 84.915 80.936v20.026a84.915 80.936 0 0 1 -84.915 80.936h-95.666a84.915 80.936 0 0 1 -84.915 -80.936v-20.026a84.915 80.936 0 0 1 84.915 -80.936" fill="#483737" stroke="#4c3a29" stroke-linecap="round" stroke-linejoin="round" stroke-width="11.02"/>
 <path transform="matrix(.30379,.95274,-.66481,-.74701,0,0)" d="m-2856.1-5542.4h70.971a62.995 68.031 0 0 1 62.995 68.031v16.833a62.995 68.031 0 0 1 -62.995 68.031h-70.971a62.995 68.031 0 0 1 -62.995 -68.031v-16.833a62.995 68.031 0 0 1 62.995 -68.031" fill="#483737" stroke="#4c3a29" stroke-linecap="round" stroke-linejoin="round" stroke-width="8.7025"/>
 <path d="m2043.1 983.59c-4.2198 29.429-12.366 61.917-13.863 89.627 32.122 3.1017 67.618-1.5226 95.215-17.839-22.667-29.519-52.542-53.02-80.277-77.698l-0.6152 3.3834-0.4595 2.5272z" fill="#483737" stroke="#4c3a29" stroke-linecap="round" stroke-linejoin="round" stroke-width="46.463"/>
 <path d="m2213.7 1185.9c-31.79 7.4309-58.14 37.782-62.223 70.175-6.8133 45.214 30.096 79.981 50.594 116.28 16.466 19.726 29.156 56.909 60.418 54.157 24.017-8.483 43.703-29.45 55.775-51.369 11.274-31.932 2.1037-66.801-18.069-93.146-21.208-30.026-37.653-65.414-64.572-90.728-6.7808-3.4173-14.198-6.1423-21.923-5.3733z" fill="#483737" stroke="#4c3a29" stroke-linecap="round" stroke-linejoin="round" stroke-width="46.463"/>
 <path d="m2400.8 1075c-17.692 3.502-35.706 12.849-47.5 26.437-5.3331 13.583 13.466 23.823 18.699 34.496 22.292 21.362 40.007 59.352 75.978 55.882 22.621 0.1159 48.245-11.552 58.676-31.917-7.0087-19.469-26.189-33.342-38.044-49.692-15.196-20.608-36.725-40.095-64.586-35.314h-1.0747l-2.1493 0.1075z" fill="#483737" stroke="#4c3a29" stroke-linecap="round" stroke-linejoin="round" stroke-width="46.463"/>
 <path d="m2242.1 967.47c-7.9725 0.53729-22.044 5.6351-22.998 11.929 18.734 13.536 36.785 35.082 61.041 36.646 9.9778-0.096 26.948-3.1744 30.413-10.962-20.186-15.284-41.82-36.431-68.456-37.613z" fill="#483737" stroke="#4c3a29" stroke-linecap="round" stroke-linejoin="round" stroke-width="46.463"/>
 <path d="m2567.4 1265.2c-39.864 8.8002-60.775 59.155-39.762 93.71 20.56 34.382 37.038 74.009 66.844 101.34 23.036 10.954 40.425-13.844 53.626-29.123 13.458-24.587 6.0705-57.277-9.9133-78.834-19.068-27.819-31.984-62.229-58.005-84.192-3.9809-1.9363-8.2928-3.403-12.788-2.9016z" fill="#483737" stroke="#4c3a29" stroke-linecap="round" stroke-linejoin="round" stroke-width="46.463"/>
 <path d="m2737.6 1521c-34.465 28.37-42.464 81.25-23.105 120.9 17.137 34.354 33.426 70.528 57.602 100.27 14.341-6.1138 21.677-26.078 28.156-40.407 9.5789-30.814 7.3857-64.808-10.332-91.986-16.315-29.836-28.606-64.001-52.105-88.879h-0.1075l-0.1074 0.1075z" fill="#483737" stroke="#4c3a29" stroke-linecap="round" stroke-linejoin="round" stroke-width="46.463"/>
 <path d="m2618.6 1771.9c-35.767 9.761-67.133 46.041-57.817 84.683 15.603 40.86 38.348 80.46 64.157 116.17 13.366 16.463 36.554 9.3576 49.972-3.3314 21.659-13.989 34.086-38.472 31.165-64.372-3.8887-35.035-29.56-63.306-44.523-94.274-10.361-15.74-20.64-39.508-42.954-38.876z" fill="#483737" stroke="#4c3a29" stroke-linecap="round" stroke-linejoin="round" stroke-width="46.463"/>
 <path d="m2385.3 1468.2c-17.685 5.6498-24.322 28.173-31.917 43.524-14.967 44.95 8.7471 92.067 37.291 126.38 22.843 28.039 40.494 62.759 70.068 84.146 18.415 8.1195 28.656-18.318 36.109-30.413 18.562-41.204 5.8357-90.581-22.353-124.34-26.061-32.624-46.519-71.697-78.987-98.546-3.2134-0.9571-6.8699-0.9347-10.209-0.7523z" fill="#483737" stroke="#4c3a29" stroke-linecap="round" stroke-linejoin="round" stroke-width="46.463"/>
 <path d="m2189.2 1619.8c-44.9 10.661-71.347 63.545-61.9 107.25 10.812 45.48 43.899 81.439 66.777 121.26 16.638 23.78 32.987 62.161 68.845 56.706 22.827-5.9657 38.658-29.306 49.649-48.897 10.988-34.539 6.2917-74.534-15.354-103.57-25.469-41.309-48.884-85.965-81.042-122.21-7.6897-6.1099-16.744-11.544-26.974-10.532z" fill="#483737" stroke="#4c3a29" stroke-linecap="round" stroke-linejoin="round" stroke-width="46.463"/>
 <path d="m1996.9 1267.5c-11.403 68.298-23.612 136.74-32.67 205.04 11.595 24.012 20.157 56.276 45.888 68.563 23.998 6.7972 44.209-15.792 58.461-31.917 24.828-33.367 23.17-79.826 2.8789-115.18-20.292-41.671-35.255-87.83-65.102-123.93-2.2644-1.6508-8.7314-7.9011-9.457-2.5791z" fill="#483737" stroke="#4c3a29" stroke-linecap="round" stroke-linejoin="round" stroke-width="46.463"/>
 <path d="m2413.9 1978.2c-27.052 7.1056-41.316 38.044-48.252 62.975-14.885 55.441 24.366 103.98 52.004 147.67 19.503 25.054 32.242 58.008 59.438 75.322 14.378 4.4344 31.014 0.3 38.051-14.499 26.405-27.288 31.77-67.137 22.775-103.28-15.472-43.001-44.851-80.265-69.423-118.64-15.289-17.646-26.961-49.915-54.593-49.542z" fill="#483737" stroke="#4c3a29" stroke-linecap="round" stroke-linejoin="round" stroke-width="46.463"/>
 <path d="m1602.3 939.31c-18.44 3.9057-13.79 13.868-10.102 33.207 2.48 32.612-2.1298 30.516 3.2239 62.76 11.573-44.552 11.61-50.015 6.8779-95.967z" fill="#483737" stroke="#4c3a29" stroke-linecap="round" stroke-linejoin="round" stroke-width="13.763"/>
 <path d="m2570.6 1116.4c21.56 36.572 51.647 66.798 83.608 94.57-22.744-38.097-52.863-71.247-86.832-99.728l1.8227 2.9162 1.4013 2.2421z" fill="#483737" stroke="#4c3a29" stroke-linecap="round" stroke-linejoin="round" stroke-width="25.6"/>
 <path d="m2749.2 1340.9c12.994 40.967 30.435 81.589 57.817 115.74-13.414-42.002-31.178-84.647-58.999-119.61l1.0049 3.2888 0.1772 0.58z" fill="#483737" stroke="#4c3a29" stroke-linecap="round" stroke-linejoin="round" stroke-width="12.363"/>
 <path d="m2214.4 1231.2c-20.736 11.336-29.424 39.755-14.293 59.214 17.468 30.747 37.8 64.853 60.933 89.841 18.124-11.809 26.326-35.334 14.83-54.593-16.318-33.422-37.664-66.571-61.47-94.462z" fill="#3d2c2c"/>
 <path d="m2016.4 1404.4c-0.8175 22.593-12.502 46.854-6.5086 68.384 4.8096 5.3382 8.0658 24.421 14.994 20.789 29.908-21.587 19.651-64.03 4.7333-91.43-9.9675-19.001-8.7164-33.806-13.218 2.2568z" fill="#3d2c2c"/>
 <path d="m2393.5 1527.5c-10.282 42.656 26.042 75.118 46.397 108.32 6.8728 8.2093 15.376 23.221 22.059 27.303 8.914-42.785-27.404-75.904-47.913-109.04-6.6237-8.7889-13.657-18.763-20.542-26.586z" fill="#3d2c2c"/>
 <path d="m2189.4 1665.4c-29.322 20.252-24.159 61.694-6.0181 87.585 22.481 36.907 45.832 76.218 73.077 108.33 30.417-23.134 19.307-68.516 0.1075-95.322-20.64-34.731-40.344-70.11-66.414-101.23l-0.7522 0.6448z" fill="#3d2c2c"/>
 <path d="m2565.4 1314.6c-12.613 19.86 10.027 39.107 16.628 56.942 8.6362 12.706 16.39 32.642 27.218 40.207 6.8318-16.011-5.0446-35.343-13.213-49.406-9.903-15.846-19.619-33.724-30.633-47.743z" fill="#3d2c2c"/>
 <path d="m2415.8 2028.6c-23.767 37.123-1.3605 81.092 20.741 112.62 16.331 25.798 32.61 51.748 51.369 75.871 21.517-30.975 8.5766-70.2-10.532-98.761-18.941-31.127-38.789-61.99-60.826-91.238l-0.7523 1.5045z" fill="#3d2c2c"/>
 <path d="m2616 1818.3c-13.377 9.454-17.669 27.071-8.7047 41.16 11.248 26.66 26.818 53.382 42.879 76.193 23.013-13.433 10.139-42.158 0.1074-59.966-10.693-19.089-21.085-41.624-34.282-57.387z" fill="#3d2c2c"/>
 <path d="m2411.2 1116c-1.8202 2.9254 9.3897 11.268 12.672 16.163 8.0333 6.2264 13.109 20.459 25.156 18.119-10.815-10.886-19.151-24.957-32.079-33.368-1.8306-0.6718-3.7887-1.1071-5.7494-0.9134z" fill="#3d2c2c"/>
 <path d="m2240.6 962.55c-9.3301 1.3084-21.944 4.7468-25.792 14.078-2.3327 8.7647 9.4433 12.153 13.974 17.619 18.248 15.252 40.647 32.618 65.927 25.368 8.0819-2.2153 19.464-5.9164 20.902-15.153-15.306-16.536-35.12-30.252-56.205-38.849-6.09-2.1102-12.334-3.4952-18.806-3.0628z" fill="#3d2c2c"/>
 <path d="m2737.2 1516c-14.402 7.4126-22.858 23.35-29.607 37.452-13.055 31.235-10.387 67.882 5.8569 97.633 16.505 32.814 31.957 67.122 55.667 95.215 7.163 3.4123 14.165-6.0958 18.538-10.585 18.087-22.207 24.914-51.838 22.568-80.116-1.1853-30.058-20.676-55.59-32.919-82.25-11.526-19.601-19.891-43.087-38.545-57.133-0.4893-0.1332-0.9554-0.3991-1.5583-0.2149zm-0.054 25.631c18.32 1.4454 21.735 23.073 30.198 35.732 10.296 22.221 23.886 43.38 30.466 67.059 2.7399 23.796 3.157 50.864-11.132 71.25-9.7691 10.77-26.661 4.5384-31.532-7.791-16.151-29.948-34.557-59.589-43.148-92.797-4.333-22.533-1.3802-47.938 11.508-67.22 3.4189-4.3983 8.506-5.2856 13.639-6.2333z" fill="#3d2c2c"/>
 <path d="m2409.1 1069.3c-23.225 1.8301-48.082 12.156-61.041 32.186-4.0747 15.634 12.389 26.54 20.059 37.991 18.85 19.776 34.222 45.941 60.863 55.451 23.862 4.9068 50.337 0.5589 68.993-16.496 5.5128-5.7401 15.737-13.419 12.681-22.46-11.52-23.3-31.668-40.912-47.821-60.786-13.533-15.248-32.308-27.491-53.734-25.885zm2.5792 11.123c24.683-1.167 40.647 20.242 55.328 36.575 9.5758 12.903 24.879 23.737 27.152 40.532-1.9401 20.165-25.901 26.742-42.825 28.478-26.092 3.9602-44.199-18.484-59.381-35.958-9.0911-12.187-22.566-22.271-27.602-36.79-3.7338-18.642 17.6-27.204 32.014-31.064 5.0128-1.1765 10.161-1.8391 15.314-1.7732z" fill="#3d2c2c"/>
 <path d="m2214.2 1180.9c-26 4.7518-46.719 25.463-59.482 47.661-14.661 28.397-10.41 63.632 6.9919 89.93 20.626 33.938 41.631 67.961 67.028 98.708 10.577 13.025 29.513 19.214 44.676 10.336 22.567-12.4 41.948-32.533 51.584-56.527 7.63-29.511 0.6897-61.421-16.818-86.402-19.746-30.085-37.606-61.896-61.148-89.25-8.2469-9.1276-20.303-15.449-32.831-14.454zm4.9435 11.284c20.922 3.104 30.494 25.382 42.234 40.407 15.999 25.762 34.634 50.067 48.36 77.107 9.6104 24.73 12.266 56.649-6.684 77.83-12.414 14.151-26.817 32.502-47.371 32.699-21.183-2.8691-29.108-25.918-41.159-40.461-17.585-27.26-38.276-52.952-51.852-82.534-14.186-32.629-2.1189-72.923 26.866-93.227 8.4818-6.3834 18.685-12.066 29.607-11.821z" fill="#3d2c2c"/>
 <path d="m2387.9 1463.1c-18.52 1.6346-27.463 20.459-34.228 35.518-14.827 29.779-11.744 66.1 2.7941 95.322 18.671 37.448 46.465 69.671 71.45 103.13 9.7645 10.386 18.931 23.245 31.502 29.962 10.638 3.5326 22.317-0.9147 28.156-10.478 14.134-18.22 24.314-40.792 21.762-64.264 1.2925-18.107-1.2602-36.107-9.2411-52.587-16.064-33.646-41.169-61.545-62.706-91.821-12.825-15.131-23.537-34.028-41.161-43.926-2.6626-0.823-5.5525-0.9873-8.3286-0.8597zm0.4299 13.971c18.453 2.1553 26.769 21.907 38.066 34.197 21.201 29.667 45.322 57.647 62.414 89.98 15.156 33.701 16.18 77.628-8.9734 106.82-11.95 10.914-28.434 1.7498-36.108-9.5644-23.41-28.101-44.736-57.997-65.93-87.8-19.577-30.346-31.606-70.334-15.32-104.71 5.3425-11.67 10.224-28.491 25.852-28.924z" fill="#3d2c2c"/>
 <path d="m1997.9 1260.9c-9.5169 1.4456-5.7708 14.531-8.6465 20.983-10.44 62.157-21.897 124.22-29.343 186.75 0.5783 16.734 11.602 31.267 18.435 46.085 8.8424 15.984 23.166 35.614 43.949 32.15 22.851-1.5054 38.099-21.88 52.175-37.72 18.762-24.554 20.037-57.829 14.078-86.886-17.502-43.863-36.255-87.517-59.267-128.8-7.8692-11.552-14.867-26.288-27.995-32.347-1.101-0.2833-2.2516-0.3739-3.3851-0.2149zm14.83 44.383c18.56 1.7068 21.144 23.71 29.188 36.726 12.243 28.789 28.136 56.091 36.904 86.215 2.0144 22.914 3.8844 48.185-9.3495 68.402-10.973 17.552-26.831 36.637-48.736 38.903-23.023-0.5243-32.743-25.5-41.41-43.024-7.1737-11.774-11.193-25.204-6.7889-38.774 7.2038-44.96 12.402-90.387 22.461-134.8 2.4469-7.9474 9.5228-12.959 17.732-13.648z" fill="#3d2c2c"/>
 <path d="m2042 973.3c-4.3447 5.8232-4.5068 16.143-6.6078 23.528-3.9315 26.056-10.957 52.497-10.587 78.726 6.0842 5.4838 16.963 2.8267 24.717 3.8688 26.66-0.7637 55.284-5.3385 77.698-19.989 4.9969-5.5068-3.612-12.742-6.6629-17.194-22.124-25.052-47.811-47.259-73.13-68.563-1.7404-0.41523-3.589-0.64838-5.427-0.37613zm22.46 33.153c13.859 5.3804 22.825 18.564 34.013 27.834-3.7142 9.6319-1.8755 23.786-10.613 29.96-15.644 1.6875-36.608 10.458-47.526-5.6193-5.803-12.229 0.505-25.96 2.1493-38.526 2.6423-9.4483 12.019-15.587 21.977-13.648z" fill="#3d2c2c"/>
 <path d="m2191.1 1614.9c-32.689 4.3355-57.68 34.014-66.468 64.641-11.007 35.059 1.7423 71.822 20.204 101.66 21.977 35.584 44.338 71.114 68.832 104.99 11.142 15.602 30.26 28.23 50.079 23.159 22.631-4.1034 37.242-25.262 49.112-43.309 12.073-21.132 11.13-46.596 8.4361-70.014-6.108-32.45-28.43-58.696-44.052-87.059-18.928-29.086-35.761-61.025-61.264-84.994-6.9365-5.6624-15.806-9.909-24.878-9.0809zm2.9016 11.23c20.376 2.5948 29.896 23.922 41.374 38.312 25.516 38.448 51.192 77.002 71.035 118.64 10.73 31.851 8.3608 70.967-16.442 95.86-10.94 13.869-30.546 28.328-48.198 17.033-24.355-14.218-35.275-42.075-51.422-63.928-20.168-32.838-45.006-64.1-56.312-101.46-9.8206-40.038 10.359-88.992 50.509-103.38 3.0737-0.8628 6.2684-1.221 9.457-1.0746z" fill="#3d2c2c"/>
 <path d="m2567.1 1260.5c-35.748 6.0578-58.324 46.294-51.584 80.599 6.798 24.999 22.826 46.364 34.935 69.134 12.797 19.61 23.547 42.289 43.783 55.366 20.086 8.9985 39.605-8.6403 51.476-23.213 16.266-17.516 17.14-44.418 10.209-66.199-14.444-33.242-34.911-63.613-55.237-93.495-8.2051-10.893-18.227-24.495-33.583-22.192zm4.3524 11.66c17.818 5.2871 24.717 25.301 35.065 38.901 14.376 25.208 34.251 48.386 41.182 77.109 5.9355 19.745-1.9698 41.171-17.373 54.374-8.1169 10.034-23.152 19.745-35.07 9.7833-26.867-25.791-42.104-60.783-60.503-92.528-20.253-28.915-5.2891-74.47 27.081-87.047 3.1415-1.0696 6.3657-0.8663 9.6182-0.591z" fill="#3d2c2c"/>
 <path d="m1612.2 915.91c-6.2391 2.3938 6.1198 1.9579 0 0z" fill="#3d2c2c"/>
 <path d="m2601.1 1150.5c4.9778 5.9224 10.303 11.539 15.582 17.194-5.6508-6.7203-11.48-13.29-17.517-19.666l1.0597 1.3541 0.8747 1.1176z" fill="#3d2c2c"/>
 <path d="m2601.1 1150.5c4.9778 5.9224 10.303 11.539 15.582 17.194-5.6508-6.7203-11.48-13.29-17.517-19.666l1.0597 1.3541 0.8747 1.1176z" fill="#3d2c2c"/>
 <path d="m2620.3 1767.2c-30.217 5.2656-56.937 29.915-64.157 59.751-2.8451 16.012-2.4258 32.986 6.1255 47.231 16.542 35.846 35.211 71.214 59.697 102.31 6.9745 9.0411 18.469 12.701 29.607 10.263 21.668-4.7931 38.915-21.964 51.315-39.547 15.167-26.846 8.0939-59.424-5.7467-85.156-15.294-26.818-29.624-54.555-48.094-79.482-6.8005-8.8031-17.192-16.024-28.747-15.368zm1.1822 11.499c18.205 1.0137 25.212 21.25 34.496 33.906 16.684 32.221 42.714 62.365 44.652 99.997 0.8368 28.32-21.768 52.263-46.64 62.276-19.123 5.3674-31.104-13.931-39.494-27.672-19.25-31.207-40.12-62.916-48.575-99.03-3.4086-31.339 21.884-60.777 51.1-69.047 1.4714-0.2435 2.9658-0.4369 4.4599-0.4299z" fill="#3d2c2c"/>
 <path d="m2414.4 1973.6c-25.914 4.4331-41.047 30.101-49.434 52.927-14.385 35.323-6.0355 75.77 12.466 108.33 23.698 40.949 50.809 80.134 78.558 118.27 9.8551 12.759 26.63 22.028 43.094 16.12 17.737-5.0158 26.363-23.781 35.356-38.204 13.534-23.981 13.751-52.772 10.048-79.525-10.658-38.358-35.276-70.489-56.129-103.66-16.035-22.32-29.386-46.994-49.403-66.027-7.0575-5.0659-15.71-8.9123-24.556-8.2211zm2.7942 11.015c18.846 1.6602 27.044 21.996 37.965 34.662 26.639 39.418 56.423 77.584 74.444 121.97 15.481 39.158 4.14 87.57-28.431 114.42-15.337 11.011-32.39-3.1507-41.045-15.769-27.795-37.35-53.471-76.497-76.193-117.14-18.5-32.098-21.013-73.464-2.7404-106.18 7.3626-14.256 18.261-30.948 36.001-31.971z" fill="#3d2c2c"/>
 <path d="m2566.7 1105.6c-4.9406 2.5055-6.2018 8.0368-1.8516 12.088 21.533 36.899 51.63 67.824 83.687 95.7 4.8324 6.1804 14.607 0.9335 9.2958-5.8032-22.451-38.814-53.042-73.093-88.068-101.02-0.9222-0.3348-2.0234-1.3496-3.0628-0.9672z" fill="#3d2c2c"/>
 <path d="m2750.9 1342.5c12.318 38.294 28.76 76.263 53.142 108.65-12.468-38.479-28.598-76.897-53.142-108.65z" fill="#3d2c2c"/>
 <path d="m2243.2 969.96c-7.5458 0.74593-15.798 3.0465-21.063 8.3823 16.151 14.344 33.279 32.04 55.828 34.926 10 0.7578 21.361-1.1714 28.962-7.3614-16.379-16.034-36.206-29.853-58.676-35.732-1.6496-0.38547-3.3725-0.30489-5.0509-0.21494z" fill="#483737"/>
 <path d="m2242.9 977.43c-3.4612 0.69978-13.34 1.0898-5.5882 4.9972 14.791 13.352 33.395 28.176 54.754 22.353 3.9242-2.1217-8.5485-7.9589-11.445-11.069-11.325-7.196-24.165-15.126-37.72-16.281z" fill="#3d2f26"/>
</svg>
